<?xml version="1.0" encoding="UTF-8" standalone="no"?>
<svg
   xmlns:dc="http://purl.org/dc/elements/1.1/"
   xmlns:cc="http://creativecommons.org/ns#"
   xmlns:rdf="http://www.w3.org/1999/02/22-rdf-syntax-ns#"
   xmlns:svg="http://www.w3.org/2000/svg"
   xmlns="http://www.w3.org/2000/svg"
   xmlns:sodipodi="http://sodipodi.sourceforge.net/DTD/sodipodi-0.dtd"
   xmlns:inkscape="http://www.inkscape.org/namespaces/inkscape"
   width="100%"
   height="100%"
   viewBox="0 0 1421 642"
   version="1.1"
   xml:space="preserve"
   style="fill-rule:evenodd;clip-rule:evenodd;stroke-linejoin:round;stroke-miterlimit:1.41421;"
   id="svg1045"
   sodipodi:docname="linuxaus-ace.svg"
   inkscape:version="0.92.4 (f8dce91, 2019-08-02)"
   inkscape:export-filename="/home/kathyreid/Dropbox/PHPworkspace/brand-guidelines/logo/lgbtq-variations/linuxaus-ace.png"
   inkscape:export-xdpi="96"
   inkscape:export-ydpi="96"><metadata
   id="metadata1051"><rdf:RDF><cc:Work
       rdf:about=""><dc:format>image/svg+xml</dc:format><dc:type
         rdf:resource="http://purl.org/dc/dcmitype/StillImage" /><dc:title /></cc:Work></rdf:RDF></metadata><defs
   id="defs1049">
        
        
        
        
        
        
        
        
        
        
        
        
        
        
        
        
        
        
        
        
        
        
        
        
        
        
        
        
        
        
        
        
        
        
        
        
        
        
        
        
        
        
        
        
        
    </defs><sodipodi:namedview
   pagecolor="#ffffff"
   bordercolor="#666666"
   borderopacity="1"
   objecttolerance="10"
   gridtolerance="10"
   guidetolerance="10"
   inkscape:pageopacity="0"
   inkscape:pageshadow="2"
   inkscape:window-width="1850"
   inkscape:window-height="1016"
   id="namedview1047"
   showgrid="false"
   inkscape:zoom="0.89267306"
   inkscape:cx="319.80101"
   inkscape:cy="448.19548"
   inkscape:window-x="970"
   inkscape:window-y="27"
   inkscape:window-maximized="1"
   inkscape:current-layer="svg1045" />
    <path
   style="fill:#ffffff;fill-rule:nonzero;stroke-width:2;stroke:#000000;stroke-opacity:1;stroke-miterlimit:1.41420996;stroke-dasharray:none;fill-opacity:1"
   d="M 470.87305 327.59375 C 488.42788 326.16347 502.27148 311.62511 502.27148 293.70508 C 502.27148 274.8384 486.98023 259.54688 468.10938 259.54688 C 465.03428 259.54688 462.10999 260.08396 459.27539 260.8457 C 460.78812 264.68112 462.30133 268.51746 463.53516 272.48438 C 465.17854 277.76806 466.5695 283.16403 467.69336 288.65625 C 468.81722 294.14847 469.67393 299.73767 470.25 305.41016 C 470.82607 311.08265 471.12109 316.83763 471.12109 322.66211 C 471.12109 324.32708 470.92094 325.94038 470.87305 327.59375 z "
   id="path4642" /><path
   inkscape:connector-curvature="0"
   id="path957"
   style="fill:#ffffff;fill-rule:nonzero;stroke-width:2;fill-opacity:1;stroke:#000000;stroke-opacity:1;stroke-miterlimit:1.41420996;stroke-dasharray:none"
   d="m 500.2629,335.90444 c 14.42085,0 26.12502,11.69167 26.12502,26.12918 0,14.42918 -11.70417,26.12919 -26.12502,26.12919 -14.43334,0 -26.13752,-11.70001 -26.13752,-26.12919 0,-14.43751 11.70418,-26.12918 26.13752,-26.12918 z" /><path
   inkscape:connector-curvature="0"
   id="path959"
   style="fill:#a3a3a3;fill-rule:nonzero;stroke-width:2;stroke:none;stroke-opacity:1;stroke-miterlimit:1.41420996;stroke-dasharray:none;fill-opacity:1"
   d="m 498.2504,211.31267 c 11.09584,0 20.09168,8.99584 20.09168,20.09585 0,11.09584 -8.99584,20.09168 -20.09168,20.09168 -11.10001,0 -20.09168,-8.99584 -20.09168,-20.09168 0,-11.10001 8.99167,-20.09585 20.09168,-20.09585 z" /><path
   inkscape:connector-curvature="0"
   id="path961"
   style="fill:#a3a3a3;fill-rule:nonzero;stroke-width:0.94488189;stroke:none;stroke-opacity:1;stroke-miterlimit:1.41420996;stroke-dasharray:none;fill-opacity:1"
   d="m 407.81699,157.05013 c 28.85419,0 52.25421,23.39168 52.25421,52.25004 0,28.85419 -23.40002,52.25004 -52.25421,52.25004 -28.85835,0 -52.25421,-23.39585 -52.25421,-52.25004 0,-28.85836 23.39586,-52.25004 52.25421,-52.25004 z" /><path
   inkscape:connector-curvature="0"
   id="path965"
   style="fill:#000000;fill-rule:nonzero;stroke-width:4.16666985;fill-opacity:1"
   d="m 47.770872,205.50016 c 9.987508,0 18.091681,8.10001 18.091681,18.09585 0,9.98334 -8.104173,18.08335 -18.091681,18.08335 -9.991675,0 -18.087515,-8.10001 -18.087515,-18.08335 0,-9.99584 8.09584,-18.09585 18.087515,-18.09585 z" /><path
   inkscape:connector-curvature="0"
   id="path967"
   style="fill:#88017c;fill-rule:nonzero;stroke-width:4.16666985;fill-opacity:1;stroke:none"
   d="m 566.57545,358.00029 c 21.10002,0 38.19587,17.10418 38.19587,38.18753 0,21.09585 -17.09585,38.19169 -38.19587,38.19169 -21.07918,0 -38.18753,-17.09584 -38.18753,-38.19169 0,-21.08335 17.10835,-38.18753 38.18753,-38.18753 z" /><path
   inkscape:connector-curvature="0"
   id="path969"
   style="fill:#a3a3a3;fill-rule:nonzero;stroke-width:4.16666985;fill-opacity:1"
   d="m 404.64616,76.975062 c 17.97918,0 32.56252,14.575011 32.56252,32.558358 0,17.97918 -14.58334,32.55836 -32.56252,32.55836 -17.98335,0 -32.56253,-14.57918 -32.56253,-32.55836 0,-17.983347 14.57918,-32.558358 32.56253,-32.558358 z" /><path
   inkscape:connector-curvature="0"
   id="path975"
   style="fill:#a3a3a3;fill-rule:nonzero;stroke-width:2;stroke:none;stroke-opacity:1;stroke-miterlimit:1.41420996;stroke-dasharray:none;fill-opacity:1"
   d="m 46.216704,401.16699 c 25.529187,0 46.229203,20.69168 46.229203,46.22087 0,25.52502 -20.700016,46.22087 -46.229203,46.22087 C 20.687517,493.60873 0,472.91288 0,447.38786 0,421.85867 20.687517,401.16699 46.216704,401.16699 Z" /><path
   inkscape:connector-curvature="0"
   id="path977"
   style="fill:#000000;fill-rule:nonzero;stroke-width:0.94488189;stroke:none;stroke-opacity:1;stroke-miterlimit:1.41420996;stroke-dasharray:none"
   d="m 141.78345,49.954207 c 32.51669,0 58.86671,26.358354 58.86671,58.866713 0,32.50836 -26.35002,58.87088 -58.86671,58.87088 -32.50836,0 -58.866717,-26.36252 -58.866717,-58.87088 0,-32.508359 26.358357,-58.866713 58.866717,-58.866713 z" /><path
   inkscape:connector-curvature="0"
   id="path981"
   style="fill:#000000;fill-rule:nonzero;stroke-width:4.16666985;fill-opacity:1"
   d="m 84.900068,251.49603 c 37.929192,0 68.670892,30.7417 68.670892,68.67089 0,37.9292 -30.7417,68.67922 -68.670892,68.67922 -37.929197,0 -68.670888,-30.75002 -68.670888,-68.67922 0,-37.92919 30.741691,-68.67089 68.670888,-68.67089 z" /><path
   inkscape:connector-curvature="0"
   id="path983"
   style="fill:#88017c;fill-rule:nonzero;stroke-width:0.94488189;stroke:none;stroke-opacity:1;stroke-miterlimit:1.41420996;stroke-dasharray:none"
   d="m 503.81707,458.50453 c 23.30002,0 42.1917,18.89585 42.1917,42.20004 0,23.30835 -18.89168,42.2042 -42.1917,42.2042 -23.31669,0 -42.20837,-18.89585 -42.20837,-42.2042 0,-23.30419 18.89168,-42.20004 42.20837,-42.20004 z" /><path
   inkscape:connector-curvature="0"
   id="path985"
   style="fill:#88017c;fill-rule:nonzero;stroke-width:2;stroke:none;stroke-opacity:1;stroke-miterlimit:1.41420996;stroke-dasharray:none;fill-opacity:1"
   d="m 412.12116,511.06708 c 27.74586,0 50.24588,22.49168 50.24588,50.23337 0,27.74585 -22.50002,50.23754 -50.24588,50.23754 -27.74585,0 -50.24587,-22.49169 -50.24587,-50.23754 0,-27.74169 22.50002,-50.23337 50.24587,-50.23337 z" /><path
   style="fill:#ffffff;fill-rule:nonzero;stroke-width:2;fill-opacity:1;stroke:#000000;stroke-opacity:1;stroke-miterlimit:1.41420996;stroke-dasharray:none"
   d="M 186.51758 445.11328 C 168.26846 454.52926 155.77148 473.52476 155.77148 495.47461 C 155.77148 526.77463 181.14672 552.1543 212.45508 552.1543 C 243.75927 552.1543 269.13867 526.77463 269.13867 495.47461 C 269.13867 492.93609 268.91325 490.45603 268.58984 488.00586 C 268.51999 487.99166 268.44678 487.98694 268.37695 487.97266 C 262.88473 486.84879 257.48877 485.45784 252.20508 483.81445 C 246.92139 482.17107 241.75 480.27526 236.70312 478.14062 C 231.65625 476.00599 226.73492 473.63277 221.95312 471.03516 C 217.17133 468.43754 212.52946 465.61436 208.04102 462.58203 C 203.55257 459.5497 199.21761 456.3079 195.05078 452.86914 C 192.08337 450.42022 189.3096 447.75605 186.51758 445.11328 z "
   id="path4587" /><path
   inkscape:connector-curvature="0"
   id="path989"
   style="fill:#ffffff;fill-rule:nonzero;stroke-width:2;fill-opacity:1;stroke:#000000;stroke-opacity:1;stroke-miterlimit:1.41420996;stroke-dasharray:none"
   d="m 281.59189,528.81292 c 12.04584,0 21.80419,9.76251 21.80419,21.80002 0,12.04168 -9.75835,21.80418 -21.80419,21.80418 -12.03751,0 -21.80002,-9.7625 -21.80002,-21.80418 0,-12.03751 9.76251,-21.80002 21.80002,-21.80002 z" /><path
   inkscape:connector-curvature="0"
   id="path991"
   style="fill:#88017c;fill-rule:nonzero;stroke-width:2;stroke:none;stroke-opacity:1;stroke-miterlimit:1.41420996;stroke-dasharray:none;fill-opacity:1"
   d="m 494.88373,404.93366 c 11.35834,0 20.54168,9.19167 20.54168,20.53335 0,11.34584 -9.18334,20.53751 -20.54168,20.53751 -11.33751,0 -20.53335,-9.19167 -20.53335,-20.53751 0,-11.34168 9.19584,-20.53335 20.53335,-20.53335 z" /><path
   style="fill:#ffffff;fill-rule:nonzero;stroke-width:2;fill-opacity:1;stroke:#000000;stroke-opacity:1;stroke-miterlimit:1.41420996;stroke-dasharray:none"
   d="M 407.58789 454.46094 C 406.56967 457.40649 405.90039 460.51693 405.90039 463.80859 C 405.90039 479.68361 418.77174 492.55469 434.64258 492.55469 C 450.52176 492.55469 463.40039 479.68361 463.40039 463.80859 C 463.40039 447.92942 450.52176 435.05469 434.64258 435.05469 C 431.94754 435.05469 429.3897 435.54605 426.91602 436.24023 C 425.17296 438.1503 423.52733 440.1504 421.69922 441.97852 C 417.88229 445.79545 413.88362 449.43038 409.7168 452.86914 C 409.03392 453.4327 408.27973 453.90797 407.58789 454.46094 z "
   id="path4624" /><path
   style="fill:#ffffff;fill-rule:nonzero;stroke-width:2;stroke:#000000;stroke-opacity:1;stroke-miterlimit:1.41420996;stroke-dasharray:none;fill-opacity:1"
   d="M 294.28711 490.99219 C 297.52718 512.76425 316.12235 529.51758 338.80078 529.51758 C 363.75913 529.51758 383.97852 509.29207 383.97852 484.33789 C 383.97852 479.83836 383.12136 475.58011 381.89648 471.47852 C 377.39618 473.88813 372.79708 476.1389 368.06445 478.14062 C 363.01757 480.27526 357.84423 482.17107 352.56055 483.81445 C 347.27686 485.45784 341.88285 486.84879 336.39062 487.97266 C 330.8984 489.09652 325.30921 489.95323 319.63672 490.5293 C 313.96423 491.10536 308.2073 491.40039 302.38281 491.40039 C 299.64961 491.40039 296.9885 491.12069 294.28711 490.99219 z "
   id="path4606" /><path
   inkscape:connector-curvature="0"
   id="path1005"
   style="fill:#a3a3a3;fill-rule:nonzero;stroke-width:4.16666985;fill-opacity:1"
   d="m 138.88761,401.16699 c 16.63751,0 30.12503,13.47918 30.12503,30.11669 0,16.63751 -13.48752,30.12919 -30.12503,30.12919 -16.63751,0 -30.12502,-13.49168 -30.12502,-30.12919 0,-16.63751 13.48751,-30.11669 30.12502,-30.11669 z" /><path
   inkscape:connector-curvature="0"
   id="path1007"
   style="fill:#88017c;fill-rule:nonzero;stroke-width:0.94488189;stroke:none;stroke-opacity:1;stroke-miterlimit:1.41420996;stroke-dasharray:none;fill-opacity:1"
   d="m 582.9213,298.19607 c 8.32084,0 15.05835,6.74584 15.05835,15.06668 0,8.31667 -6.73751,15.06251 -15.05835,15.06251 -8.32501,0 -15.06668,-6.74584 -15.06668,-15.06251 0,-8.32084 6.74167,-15.06668 15.06668,-15.06668 z" /><path
   inkscape:connector-curvature="0"
   id="path1009"
   style="fill:#000000;fill-rule:nonzero;stroke-width:4.16666985;fill-opacity:1"
   d="m 230.00018,3.6500029 c 8.32084,0 15.05835,6.7500051 15.05835,15.0708451 0,8.316674 -6.73751,15.062512 -15.05835,15.062512 -8.32084,0 -15.06667,-6.745838 -15.06667,-15.062512 0,-8.32084 6.74583,-15.0708451 15.06667,-15.0708451 z" /><path
   inkscape:connector-curvature="0"
   id="path1011"
   style="fill:#88017c;fill-rule:nonzero;stroke-width:4.16666985;fill-opacity:1;stroke:none"
   d="m 518.87125,611.53799 c 8.32084,0 15.06251,6.74584 15.06251,15.06668 0,8.31667 -6.74167,15.06251 -15.06251,15.06251 -8.32084,0 -15.06251,-6.74584 -15.06251,-15.06251 0,-8.32084 6.74167,-15.06668 15.06251,-15.06668 z" /><path
   inkscape:connector-curvature="0"
   id="path1015"
   style="fill:#4e4e50;fill-rule:nonzero;stroke-width:4.16666985"
   d="m 776.81312,269.50022 v 9.22917 h -41.4792 v -74.70006 h 10.42501 v 65.47089 z" /><rect
   id="rect1017"
   style="fill:#4e4e50;fill-rule:nonzero;stroke-width:4.16666985"
   height="74.700058"
   width="10.420841"
   y="204.02933"
   x="808.94647" /><path
   inkscape:connector-curvature="0"
   id="path1019"
   style="fill:#4e4e50;fill-rule:nonzero;stroke-width:4.16666985"
   d="m 913.3924,204.02933 v 74.70006 H 895.15072 L 869.3132,213.15434 h -1.73751 v 65.57505 h -10.42084 v -74.70006 h 18.56252 l 25.30002,65.58339 h 1.95417 v -65.58339 z" /><path
   inkscape:connector-curvature="0"
   id="path1021"
   style="fill:#4e4e50;fill-rule:nonzero;stroke-width:4.16666985"
   d="m 957.4716,274.00439 c -4.4125,-3.94167 -6.62084,-10.18335 -6.62084,-18.72502 v -51.25004 h 10.42084 v 51.46671 c 0,10.13334 5.39584,15.19584 16.17918,15.19584 5.64584,0 9.86251,-1.22916 12.64585,-3.6875 2.79166,-2.45834 4.18333,-6.29584 4.18333,-11.50834 v -51.46671 h 10.31664 v 51.25004 c 0,8.54167 -2.2291,14.78335 -6.67914,18.72502 -4.45,3.94583 -11.2,5.92083 -20.24584,5.92083 -9.05001,0 -15.77918,-1.975 -20.20002,-5.92083 z" /><path
   inkscape:connector-curvature="0"
   id="path1023"
   style="fill:#4e4e50;fill-rule:nonzero;stroke-width:4.16666985"
   d="m 1059.1008,242.35853 -22.5833,-38.3292 h 11.6125 l 17.375,30.51252 17.5834,-30.51252 h 10.9708 l -22.5875,37.89586 22.5875,36.8042 h -11.6208 l -17.2584,-29.42502 -17.5917,29.42502 h -11.0708 z" /><path
   inkscape:connector-curvature="0"
   id="path1025"
   style="fill:#4e4e50;fill-rule:nonzero;stroke-width:4.16666985"
   d="m 761.50061,372.97113 h -5.64584 l -13.24584,43.7542 h 32.02919 z m 14.55001,48.85421 h -34.85003 l -6.51667,21.93335 h -5.32084 l 22.36669,-75.67506 h 13.79168 l 22.36251,75.67506 h -5.32083 z" /><path
   inkscape:connector-curvature="0"
   id="path1027"
   style="fill:#4e4e50;fill-rule:nonzero;stroke-width:4.16666985"
   d="m 825.82983,439.30868 c -4.16667,-3.62083 -6.24167,-9.40834 -6.24167,-17.37084 v -53.85421 h 5.53333 V 422.042 c 0,11.87501 6.52084,17.80835 19.55002,17.80835 6.94584,0 12.10001,-1.40833 15.47084,-4.23333 3.35834,-2.82501 5.04584,-7.34584 5.04584,-13.57502 v -53.95837 h 5.32084 v 53.85421 c 0,7.9625 -2.11667,13.75001 -6.35417,17.37084 -4.23334,3.62084 -10.65418,5.42501 -19.27502,5.42501 -8.53334,0 -14.89168,-1.80417 -19.05001,-5.42501 z" /><path
   inkscape:connector-curvature="0"
   id="path1029"
   style="fill:#4e4e50;fill-rule:nonzero;stroke-width:4.16666985"
   d="m 910.24656,443.10869 -3.90833,-0.4375 0.5375,-4.99167 c 9.99584,1.3 17.51668,1.95417 22.58335,1.95417 12.01667,0 18.02501,-5.82918 18.02501,-17.48335 0,-3.17917 -0.47083,-5.65834 -1.40833,-7.43334 -0.94167,-1.77084 -2.70001,-3.22084 -5.26667,-4.34167 -2.56667,-1.125 -6.38751,-2.11667 -11.45418,-2.9875 -6.07917,-1.0875 -10.76668,-2.35417 -14.06251,-3.80001 -3.29167,-1.44583 -5.69584,-3.50833 -7.21667,-6.19167 -1.525,-2.67083 -2.27917,-6.36667 -2.27917,-11.07084 0,-6.51251 1.93333,-11.37918 5.80417,-14.60418 3.87084,-3.21667 9.86251,-4.82917 17.97085,-4.82917 5.93334,0 13.24167,0.61667 21.92918,1.84583 l -0.54167,4.99584 c -10.275,-1.23333 -17.37084,-1.85 -21.27918,-1.85 -12.15834,0 -18.24168,4.70834 -18.24168,14.11668 0,3.7625 0.45417,6.55 1.35417,8.35834 0.90833,1.8125 2.7,3.25833 5.37917,4.34584 2.67917,1.08333 7.09167,2.24166 13.24584,3.47083 5.49584,1.01667 9.77084,2.225 12.81251,3.6375 3.0375,1.41251 5.26667,3.35001 6.67501,5.81251 1.41667,2.45833 2.11667,5.7875 2.11667,9.98751 0,7.81667 -1.88334,13.60417 -5.64584,17.36668 -3.76251,3.76667 -9.66251,5.64584 -17.69585,5.64584 -4.85,0 -11.32918,-0.50417 -19.43335,-1.51667 z" /><path
   inkscape:connector-curvature="0"
   id="path1031"
   style="fill:#4e4e50;fill-rule:nonzero;stroke-width:4.16666985"
   d="m 1008.2841,373.08363 h -24.53331 v -5 h 54.28341 v 5 h -24.3209 v 70.67506 h -5.4292 z" /><path
   inkscape:connector-curvature="0"
   id="path1033"
   style="fill:#4e4e50;fill-rule:nonzero;stroke-width:4.16666985"
   d="m 1098.83,408.25866 c 11.5792,0 17.3751,-5.8625 17.3751,-17.59168 0,-6.00417 -1.4334,-10.44168 -4.2917,-13.30001 -2.8583,-2.85834 -7.2583,-4.28334 -13.1917,-4.28334 h -21.9292 v 35.17503 z m -27.4666,-40.17503 h 27.3583 c 7.8167,0 13.625,1.79167 17.425,5.375 3.8,3.58334 5.7042,9.17918 5.7042,16.77502 0,12.45001 -5.0333,19.80001 -15.0958,22.04168 l 16.1791,31.48336 h -6.0791 l -15.7417,-30.50836 h -24.3209 v 30.50836 h -5.4291 z" /><path
   inkscape:connector-curvature="0"
   id="path1035"
   style="fill:#4e4e50;fill-rule:nonzero;stroke-width:4.16666985"
   d="m 1186.9926,372.97113 h -5.6458 l -13.2459,43.7542 h 32.0292 z m 14.5459,48.85421 h -34.8459 l -6.5208,21.93335 h -5.3167 l 22.3667,-75.67506 h 13.7875 l 22.3667,75.67506 h -5.3167 z" /><path
   inkscape:connector-curvature="0"
   id="path1037"
   style="fill:#4e4e50;fill-rule:nonzero;stroke-width:4.16666985"
   d="m 1288.6177,438.76702 v 4.99167 h -41.0417 v -75.67506 h 5.4292 v 70.68339 z" /><rect
   id="rect1039"
   style="fill:#4e4e50;fill-rule:nonzero;stroke-width:4.16666985"
   height="75.675064"
   width="5.4291711"
   y="368.08362"
   x="1322.0552" /><path
   inkscape:connector-curvature="0"
   id="path1041"
   style="fill:#4e4e50;fill-rule:nonzero;stroke-width:4.16666985"
   d="m 1393.7094,372.97113 h -5.6416 l -13.2459,43.7542 h 32.0292 z m 14.5501,48.85421 h -34.8501 l -6.5125,21.93335 h -5.325 l 22.3709,-75.67506 h 13.7875 l 22.3625,75.67506 h -5.3167 z" />
<path
   style="fill:#000000;fill-rule:nonzero;stroke-width:2;stroke:none;stroke-opacity:1;stroke-miterlimit:1.41420996;stroke-dasharray:none;fill-opacity:1"
   d="M 293.26367 93.046875 C 264.40948 93.046875 241.01758 116.43851 241.01758 145.29688 C 241.01758 151.93137 242.2674 158.26995 244.52344 164.10938 C 262.57033 157.52199 282.05609 153.92578 302.38281 153.92578 C 316.6278 153.92578 330.45827 155.69994 343.67188 159.02344 C 344.86099 154.64733 345.50781 150.04916 345.50781 145.29688 C 345.50781 116.43851 322.12203 93.046875 293.26367 93.046875 z "
   id="path971" /><path
   inkscape:connector-curvature="0"
   id="path1013-6-3"
   style="clip-rule:evenodd;fill:#ffffff;fill-rule:nonzero;stroke-width:4.16666985;stroke-linejoin:round;stroke-miterlimit:1.41420996"
   d="m 300.38364,489.4 c 93.19174,0 168.73763,-75.54589 168.73763,-168.73763 0,-93.19174 -75.54589,-168.73764 -168.73763,-168.73764 -93.19175,0 -168.73764,75.5459 -168.73764,168.73764 0,93.19174 75.54589,168.73763 168.73764,168.73763 z" /></svg>