<?xml version="1.0" encoding="UTF-8" standalone="no"?>
<svg
   xmlns:dc="http://purl.org/dc/elements/1.1/"
   xmlns:cc="http://creativecommons.org/ns#"
   xmlns:rdf="http://www.w3.org/1999/02/22-rdf-syntax-ns#"
   xmlns:svg="http://www.w3.org/2000/svg"
   xmlns="http://www.w3.org/2000/svg"
   xmlns:sodipodi="http://sodipodi.sourceforge.net/DTD/sodipodi-0.dtd"
   xmlns:inkscape="http://www.inkscape.org/namespaces/inkscape"
   width="100%"
   height="100%"
   viewBox="0 0 1421 642"
   version="1.1"
   xml:space="preserve"
   style="fill-rule:evenodd;clip-rule:evenodd;stroke-linejoin:round;stroke-miterlimit:1.41421;"
   id="svg1045"
   sodipodi:docname="linuxaus-transgender.svg"
   inkscape:version="0.92.4 (f8dce91, 2019-08-02)"
   inkscape:export-filename="/home/kathyreid/Dropbox/PHPworkspace/brand-guidelines/logo/lgbtq-variations/linuxaus-transgender.png"
   inkscape:export-xdpi="96"
   inkscape:export-ydpi="96"><metadata
   id="metadata1051"><rdf:RDF><cc:Work
       rdf:about=""><dc:format>image/svg+xml</dc:format><dc:type
         rdf:resource="http://purl.org/dc/dcmitype/StillImage" /><dc:title /></cc:Work></rdf:RDF></metadata><defs
   id="defs1049">
        
        
        
        
        
        
        
        
        
        
        
        
        
        
        
        
        
        
        
        
        
        
        
        
        
        
        
        
        
        
        
        
        
        
        
        
        
        
        
        
        
        
        
        
        
    </defs><sodipodi:namedview
   pagecolor="#ffffff"
   bordercolor="#666666"
   borderopacity="1"
   objecttolerance="10"
   gridtolerance="10"
   guidetolerance="10"
   inkscape:pageopacity="0"
   inkscape:pageshadow="2"
   inkscape:window-width="1850"
   inkscape:window-height="1016"
   id="namedview1047"
   showgrid="false"
   inkscape:zoom="1.0098522"
   inkscape:cx="526.19085"
   inkscape:cy="321"
   inkscape:window-x="970"
   inkscape:window-y="27"
   inkscape:window-maximized="1"
   inkscape:current-layer="svg1045" />
    <path
   inkscape:connector-curvature="0"
   id="path955"
   style="fill:#ffffff;fill-rule:nonzero;stroke-width:2;stroke:#000000;stroke-opacity:1;stroke-miterlimit:1.41420996;stroke-dasharray:none"
   d="M 468.10938 259.54688 C 465.089 259.54688 462.16033 259.94199 459.37109 260.67773 C 466.95393 279.8667 471.12109 300.77691 471.12109 322.66211 C 471.12109 324.3607 471.08891 326.05177 471.03906 327.73828 C 488.53611 326.25033 502.27148 311.58382 502.27148 293.70508 C 502.27148 274.8384 486.98023 259.54688 468.10938 259.54688 z" /><path
   inkscape:connector-curvature="0"
   id="path957"
   style="fill:#ff9db5;fill-rule:nonzero;stroke-width:4.16666985;fill-opacity:1;stroke:none"
   d="m 500.2629,335.90444 c 14.42085,0 26.12502,11.69167 26.12502,26.12918 0,14.42918 -11.70417,26.12919 -26.12502,26.12919 -14.43334,0 -26.13752,-11.70001 -26.13752,-26.12919 0,-14.43751 11.70418,-26.12918 26.13752,-26.12918 z" /><path
   inkscape:connector-curvature="0"
   id="path959"
   style="fill:#ffffff;fill-rule:nonzero;stroke-width:2;stroke:#000000;stroke-opacity:1;stroke-miterlimit:1.41420996;stroke-dasharray:none"
   d="m 498.2504,211.31267 c 11.09584,0 20.09168,8.99584 20.09168,20.09585 0,11.09584 -8.99584,20.09168 -20.09168,20.09168 -11.10001,0 -20.09168,-8.99584 -20.09168,-20.09168 0,-11.10001 8.99167,-20.09585 20.09168,-20.09585 z" /><path
   inkscape:connector-curvature="0"
   id="path961"
   style="fill:#ffffff;fill-rule:nonzero;stroke-width:2;stroke:#000000;stroke-opacity:1;stroke-miterlimit:1.41420996;stroke-dasharray:none"
   d="M 407.81641 157.05078 C 394.78553 157.05078 382.87882 161.83022 373.72656 169.71875 C 405.88856 184.74689 432.52391 209.6155 449.76367 240.45703 C 456.23822 231.75701 460.07031 220.97711 460.07031 209.30078 C 460.07031 180.44242 436.6706 157.05078 407.81641 157.05078 z" /><path
   inkscape:connector-curvature="0"
   id="path965"
   style="fill:#2ccafc;fill-rule:nonzero;stroke-width:4.16666985;fill-opacity:1;stroke:none"
   d="m 47.770872,205.50016 c 9.987508,0 18.091681,8.10001 18.091681,18.09585 0,9.98334 -8.104173,18.08335 -18.091681,18.08335 -9.991675,0 -18.087515,-8.10001 -18.087515,-18.08335 0,-9.99584 8.09584,-18.09585 18.087515,-18.09585 z" /><path
   inkscape:connector-curvature="0"
   id="path967"
   style="fill:#2ccafc;fill-rule:nonzero;stroke-width:4.16666985;fill-opacity:1;stroke:none"
   d="m 566.57545,358.00029 c 21.10002,0 38.19587,17.10418 38.19587,38.18753 0,21.09585 -17.09585,38.19169 -38.19587,38.19169 -21.07918,0 -38.18753,-17.09584 -38.18753,-38.19169 0,-21.08335 17.10835,-38.18753 38.18753,-38.18753 z" /><path
   inkscape:connector-curvature="0"
   id="path969"
   style="fill:#ff9db5;fill-rule:nonzero;stroke-width:4.16666985;fill-opacity:1"
   d="m 404.64616,76.975062 c 17.97918,0 32.56252,14.575011 32.56252,32.558358 0,17.97918 -14.58334,32.55836 -32.56252,32.55836 -17.98335,0 -32.56253,-14.57918 -32.56253,-32.55836 0,-17.983347 14.57918,-32.558358 32.56253,-32.558358 z" /><path
   inkscape:connector-curvature="0"
   id="path971"
   style="fill:#ff9db5;fill-rule:nonzero;stroke-width:0.94488189;stroke:none;stroke-opacity:1;stroke-miterlimit:1.41420996;stroke-dasharray:none;fill-opacity:1"
   d="m 293.26273,93.045908 c 28.85836,0 52.24588,23.391682 52.24588,52.250042 0,28.85002 -23.38752,52.24587 -52.24588,52.24587 -28.85419,0 -52.24587,-23.39585 -52.24587,-52.24587 0,-28.85836 23.39168,-52.250042 52.24587,-52.250042 z" /><path
   inkscape:connector-curvature="0"
   id="path975"
   style="fill:#ffffff;fill-rule:nonzero;stroke-width:2;stroke:#000000;stroke-opacity:1;stroke-miterlimit:1.41420996;stroke-dasharray:none;fill-opacity:1"
   d="m 46.216704,401.16699 c 25.529187,0 46.229203,20.69168 46.229203,46.22087 0,25.52502 -20.700016,46.22087 -46.229203,46.22087 C 20.687517,493.60873 0,472.91288 0,447.38786 0,421.85867 20.687517,401.16699 46.216704,401.16699 Z" /><path
   inkscape:connector-curvature="0"
   id="path977"
   style="fill:#2ccafc;fill-rule:nonzero;stroke-width:2;stroke:none;stroke-opacity:1;stroke-miterlimit:1.41420996;stroke-dasharray:none;fill-opacity:1"
   d="m 141.78345,49.954207 c 32.51669,0 58.86671,26.358354 58.86671,58.866713 0,32.50836 -26.35002,58.87088 -58.86671,58.87088 -32.50836,0 -58.866717,-26.36252 -58.866717,-58.87088 0,-32.508359 26.358357,-58.866713 58.866717,-58.866713 z" /><path
   inkscape:connector-curvature="0"
   id="path981"
   style="fill:#ff9db5;fill-rule:nonzero;stroke-width:4.16666985;fill-opacity:1"
   d="m 84.900068,251.49603 c 37.929192,0 68.670892,30.7417 68.670892,68.67089 0,37.9292 -30.7417,68.67922 -68.670892,68.67922 -37.929197,0 -68.670888,-30.75002 -68.670888,-68.67922 0,-37.92919 30.741691,-68.67089 68.670888,-68.67089 z" /><path
   inkscape:connector-curvature="0"
   id="path983"
   style="fill:#2ccafc;fill-rule:nonzero;stroke-width:2;stroke:none;stroke-opacity:1;stroke-miterlimit:1.41420996;stroke-dasharray:none;fill-opacity:1"
   d="m 503.81707,458.50453 c 23.30002,0 42.1917,18.89585 42.1917,42.20004 0,23.30835 -18.89168,42.2042 -42.1917,42.2042 -23.31669,0 -42.20837,-18.89585 -42.20837,-42.2042 0,-23.30419 18.89168,-42.20004 42.20837,-42.20004 z" /><path
   inkscape:connector-curvature="0"
   id="path985"
   style="fill:#2ccafc;fill-rule:nonzero;stroke-width:4.16666985;fill-opacity:1;stroke:none"
   d="m 412.12116,511.06708 c 27.74586,0 50.24588,22.49168 50.24588,50.23337 0,27.74585 -22.50002,50.23754 -50.24588,50.23754 -27.74585,0 -50.24587,-22.49169 -50.24587,-50.23754 0,-27.74169 22.50002,-50.23337 50.24587,-50.23337 z" /><path
   style="fill:#ffffff;fill-rule:nonzero;stroke-width:2;stroke:#000000;stroke-opacity:1;fill-opacity:1;stroke-miterlimit:1.41420996;stroke-dasharray:none"
   d="M 183.91016 446.5625 C 167.09611 456.3951 155.77148 474.59092 155.77148 495.47461 C 155.77148 526.77463 181.14672 552.1543 212.45508 552.1543 C 243.75927 552.1543 269.13867 526.77463 269.13867 495.47461 C 269.13867 493.74624 269.03036 492.04442 268.87891 490.35547 C 268.05438 490.19958 267.19719 490.1405 266.37695 489.97266 C 260.88473 488.84879 255.48877 487.45784 250.20508 485.81445 C 244.92139 484.17107 239.75 482.27526 234.70312 480.14062 C 229.65625 478.00599 224.73492 475.63277 219.95312 473.03516 C 215.17133 470.43754 210.52946 467.61436 206.04102 464.58203 C 201.55257 461.5497 197.21761 458.3079 193.05078 454.86914 C 189.87237 452.24609 186.88693 449.40754 183.91016 446.5625 z "
   id="path5507" /><path
   inkscape:connector-curvature="0"
   id="path989"
   style="fill:#ff9db5;fill-rule:nonzero;stroke-width:4.16666985;fill-opacity:1;stroke:none"
   d="m 281.59189,528.81292 c 12.04584,0 21.80419,9.76251 21.80419,21.80002 0,12.04168 -9.75835,21.80418 -21.80419,21.80418 -12.03751,0 -21.80002,-9.7625 -21.80002,-21.80418 0,-12.03751 9.76251,-21.80002 21.80002,-21.80002 z" /><path
   inkscape:connector-curvature="0"
   id="path991"
   style="fill:#ff9db5;fill-rule:nonzero;stroke-width:4.16666985;fill-opacity:1;stroke:none"
   d="m 494.88373,404.93366 c 11.35834,0 20.54168,9.19167 20.54168,20.53335 0,11.34584 -9.18334,20.53751 -20.54168,20.53751 -11.33751,0 -20.53335,-9.19167 -20.53335,-20.53751 0,-11.34168 9.19584,-20.53335 20.53335,-20.53335 z" /><path
   inkscape:connector-curvature="0"
   id="path993"
   style="fill:#ff9db5;fill-rule:nonzero;stroke-width:4.16666985;fill-opacity:1;stroke:none"
   d="m 434.64201,435.05451 c 15.87918,0 28.75836,12.87502 28.75836,28.75419 0,15.87502 -12.87918,28.74586 -28.75836,28.74586 -15.87084,0 -28.74169,-12.87084 -28.74169,-28.74586 0,-15.87917 12.87085,-28.75419 28.74169,-28.75419 z" /><path
   inkscape:connector-curvature="0"
   id="path997"
   style="fill:#ff9db5;fill-rule:nonzero;stroke-width:2;stroke:none;stroke-opacity:1;stroke-miterlimit:1.41420996;stroke-dasharray:none;fill-opacity:1"
   d="M 382.09375 471.41602 C 358.35451 484.16352 331.21469 491.40039 302.38281 491.40039 C 299.61643 491.40039 296.86853 491.32889 294.13477 491.19727 C 297.43907 512.89536 316.1749 529.51758 338.80078 529.51758 C 363.75913 529.51758 383.97852 509.29207 383.97852 484.33789 C 383.97852 479.84602 383.31461 475.51146 382.09375 471.41602 z" /><path
   style="fill:#ffffff;fill-rule:nonzero;stroke-width:2;stroke:#000000;stroke-opacity:1;stroke-miterlimit:1.41420996;stroke-dasharray:none"
   d="M 149.23438 403.10547 C 145.9951 401.91559 142.53892 401.16602 138.88672 401.16602 C 122.24921 401.16602 108.76172 414.64569 108.76172 431.2832 C 108.76172 447.92071 122.24921 461.41211 138.88672 461.41211 C 155.52423 461.41211 169.01172 447.92071 169.01172 431.2832 C 169.01172 431.21828 168.9926 431.15858 168.99219 431.09375 C 168.07738 430.0394 167.06658 429.07312 166.17773 427.99609 C 162.73897 423.82927 159.49522 419.49431 156.46289 415.00586 C 153.8691 411.16654 151.51159 407.16093 149.23438 403.10547 z "
   id="path5489" /><path
   inkscape:connector-curvature="0"
   id="path1007"
   style="fill:#ff9db5;fill-rule:nonzero;stroke-width:2;stroke:none;stroke-opacity:1;stroke-miterlimit:1.41420996;stroke-dasharray:none;fill-opacity:1"
   d="m 582.9213,298.19607 c 8.32084,0 15.05835,6.74584 15.05835,15.06668 0,8.31667 -6.73751,15.06251 -15.05835,15.06251 -8.32501,0 -15.06668,-6.74584 -15.06668,-15.06251 0,-8.32084 6.74167,-15.06668 15.06668,-15.06668 z" /><path
   inkscape:connector-curvature="0"
   id="path1009"
   style="fill:#2ccafc;fill-rule:nonzero;stroke-width:4.16666985;fill-opacity:1;stroke:none"
   d="m 230.00018,3.6500029 c 8.32084,0 15.05835,6.7500051 15.05835,15.0708451 0,8.316674 -6.73751,15.062512 -15.05835,15.062512 -8.32084,0 -15.06667,-6.745838 -15.06667,-15.062512 0,-8.32084 6.74583,-15.0708451 15.06667,-15.0708451 z" /><path
   inkscape:connector-curvature="0"
   id="path1011"
   style="fill:#2ccafc;fill-rule:nonzero;stroke-width:4.16666985;fill-opacity:1;stroke:none"
   d="m 518.87125,611.53799 c 8.32084,0 15.06251,6.74584 15.06251,15.06668 0,8.31667 -6.74167,15.06251 -15.06251,15.06251 -8.32084,0 -15.06251,-6.74584 -15.06251,-15.06251 0,-8.32084 6.74167,-15.06668 15.06251,-15.06668 z" /><path
   inkscape:connector-curvature="0"
   id="path1015"
   style="fill:#4e4e50;fill-rule:nonzero;stroke-width:4.16666985"
   d="m 776.81312,269.50022 v 9.22917 h -41.4792 v -74.70006 h 10.42501 v 65.47089 z" /><rect
   id="rect1017"
   style="fill:#4e4e50;fill-rule:nonzero;stroke-width:4.16666985"
   height="74.700058"
   width="10.420841"
   y="204.02933"
   x="808.94647" /><path
   inkscape:connector-curvature="0"
   id="path1019"
   style="fill:#4e4e50;fill-rule:nonzero;stroke-width:4.16666985"
   d="m 913.3924,204.02933 v 74.70006 H 895.15072 L 869.3132,213.15434 h -1.73751 v 65.57505 h -10.42084 v -74.70006 h 18.56252 l 25.30002,65.58339 h 1.95417 v -65.58339 z" /><path
   inkscape:connector-curvature="0"
   id="path1021"
   style="fill:#4e4e50;fill-rule:nonzero;stroke-width:4.16666985"
   d="m 957.4716,274.00439 c -4.4125,-3.94167 -6.62084,-10.18335 -6.62084,-18.72502 v -51.25004 h 10.42084 v 51.46671 c 0,10.13334 5.39584,15.19584 16.17918,15.19584 5.64584,0 9.86251,-1.22916 12.64585,-3.6875 2.79166,-2.45834 4.18333,-6.29584 4.18333,-11.50834 v -51.46671 h 10.31664 v 51.25004 c 0,8.54167 -2.2291,14.78335 -6.67914,18.72502 -4.45,3.94583 -11.2,5.92083 -20.24584,5.92083 -9.05001,0 -15.77918,-1.975 -20.20002,-5.92083 z" /><path
   inkscape:connector-curvature="0"
   id="path1023"
   style="fill:#4e4e50;fill-rule:nonzero;stroke-width:4.16666985"
   d="m 1059.1008,242.35853 -22.5833,-38.3292 h 11.6125 l 17.375,30.51252 17.5834,-30.51252 h 10.9708 l -22.5875,37.89586 22.5875,36.8042 h -11.6208 l -17.2584,-29.42502 -17.5917,29.42502 h -11.0708 z" /><path
   inkscape:connector-curvature="0"
   id="path1025"
   style="fill:#4e4e50;fill-rule:nonzero;stroke-width:4.16666985"
   d="m 761.50061,372.97113 h -5.64584 l -13.24584,43.7542 h 32.02919 z m 14.55001,48.85421 h -34.85003 l -6.51667,21.93335 h -5.32084 l 22.36669,-75.67506 h 13.79168 l 22.36251,75.67506 h -5.32083 z" /><path
   inkscape:connector-curvature="0"
   id="path1027"
   style="fill:#4e4e50;fill-rule:nonzero;stroke-width:4.16666985"
   d="m 825.82983,439.30868 c -4.16667,-3.62083 -6.24167,-9.40834 -6.24167,-17.37084 v -53.85421 h 5.53333 V 422.042 c 0,11.87501 6.52084,17.80835 19.55002,17.80835 6.94584,0 12.10001,-1.40833 15.47084,-4.23333 3.35834,-2.82501 5.04584,-7.34584 5.04584,-13.57502 v -53.95837 h 5.32084 v 53.85421 c 0,7.9625 -2.11667,13.75001 -6.35417,17.37084 -4.23334,3.62084 -10.65418,5.42501 -19.27502,5.42501 -8.53334,0 -14.89168,-1.80417 -19.05001,-5.42501 z" /><path
   inkscape:connector-curvature="0"
   id="path1029"
   style="fill:#4e4e50;fill-rule:nonzero;stroke-width:4.16666985"
   d="m 910.24656,443.10869 -3.90833,-0.4375 0.5375,-4.99167 c 9.99584,1.3 17.51668,1.95417 22.58335,1.95417 12.01667,0 18.02501,-5.82918 18.02501,-17.48335 0,-3.17917 -0.47083,-5.65834 -1.40833,-7.43334 -0.94167,-1.77084 -2.70001,-3.22084 -5.26667,-4.34167 -2.56667,-1.125 -6.38751,-2.11667 -11.45418,-2.9875 -6.07917,-1.0875 -10.76668,-2.35417 -14.06251,-3.80001 -3.29167,-1.44583 -5.69584,-3.50833 -7.21667,-6.19167 -1.525,-2.67083 -2.27917,-6.36667 -2.27917,-11.07084 0,-6.51251 1.93333,-11.37918 5.80417,-14.60418 3.87084,-3.21667 9.86251,-4.82917 17.97085,-4.82917 5.93334,0 13.24167,0.61667 21.92918,1.84583 l -0.54167,4.99584 c -10.275,-1.23333 -17.37084,-1.85 -21.27918,-1.85 -12.15834,0 -18.24168,4.70834 -18.24168,14.11668 0,3.7625 0.45417,6.55 1.35417,8.35834 0.90833,1.8125 2.7,3.25833 5.37917,4.34584 2.67917,1.08333 7.09167,2.24166 13.24584,3.47083 5.49584,1.01667 9.77084,2.225 12.81251,3.6375 3.0375,1.41251 5.26667,3.35001 6.67501,5.81251 1.41667,2.45833 2.11667,5.7875 2.11667,9.98751 0,7.81667 -1.88334,13.60417 -5.64584,17.36668 -3.76251,3.76667 -9.66251,5.64584 -17.69585,5.64584 -4.85,0 -11.32918,-0.50417 -19.43335,-1.51667 z" /><path
   inkscape:connector-curvature="0"
   id="path1031"
   style="fill:#4e4e50;fill-rule:nonzero;stroke-width:4.16666985"
   d="m 1008.2841,373.08363 h -24.53331 v -5 h 54.28341 v 5 h -24.3209 v 70.67506 h -5.4292 z" /><path
   inkscape:connector-curvature="0"
   id="path1033"
   style="fill:#4e4e50;fill-rule:nonzero;stroke-width:4.16666985"
   d="m 1098.83,408.25866 c 11.5792,0 17.3751,-5.8625 17.3751,-17.59168 0,-6.00417 -1.4334,-10.44168 -4.2917,-13.30001 -2.8583,-2.85834 -7.2583,-4.28334 -13.1917,-4.28334 h -21.9292 v 35.17503 z m -27.4666,-40.17503 h 27.3583 c 7.8167,0 13.625,1.79167 17.425,5.375 3.8,3.58334 5.7042,9.17918 5.7042,16.77502 0,12.45001 -5.0333,19.80001 -15.0958,22.04168 l 16.1791,31.48336 h -6.0791 l -15.7417,-30.50836 h -24.3209 v 30.50836 h -5.4291 z" /><path
   inkscape:connector-curvature="0"
   id="path1035"
   style="fill:#4e4e50;fill-rule:nonzero;stroke-width:4.16666985"
   d="m 1186.9926,372.97113 h -5.6458 l -13.2459,43.7542 h 32.0292 z m 14.5459,48.85421 h -34.8459 l -6.5208,21.93335 h -5.3167 l 22.3667,-75.67506 h 13.7875 l 22.3667,75.67506 h -5.3167 z" /><path
   inkscape:connector-curvature="0"
   id="path1037"
   style="fill:#4e4e50;fill-rule:nonzero;stroke-width:4.16666985"
   d="m 1288.6177,438.76702 v 4.99167 h -41.0417 v -75.67506 h 5.4292 v 70.68339 z" /><rect
   id="rect1039"
   style="fill:#4e4e50;fill-rule:nonzero;stroke-width:4.16666985"
   height="75.675064"
   width="5.4291711"
   y="368.08362"
   x="1322.0552" /><path
   inkscape:connector-curvature="0"
   id="path1041"
   style="fill:#4e4e50;fill-rule:nonzero;stroke-width:4.16666985"
   d="m 1393.7094,372.97113 h -5.6416 l -13.2459,43.7542 h 32.0292 z m 14.5501,48.85421 h -34.8501 l -6.5125,21.93335 h -5.325 l 22.3709,-75.67506 h 13.7875 l 22.3625,75.67506 h -5.3167 z" />
<path
   inkscape:connector-curvature="0"
   id="path1013-2-9"
   style="clip-rule:evenodd;fill:#ffffff;fill-rule:nonzero;stroke-width:4.16666985;stroke-linejoin:round;stroke-miterlimit:1.41420996"
   d="m 300.38364,491.4 c 93.19174,0 168.73765,-75.54589 168.73765,-168.73763 0,-93.19174 -75.54591,-168.73764 -168.73765,-168.73764 -93.19175,0 -168.73764,75.5459 -168.73764,168.73764 0,93.19174 75.54589,168.73763 168.73764,168.73763 z" /></svg>