<?xml version="1.0" encoding="UTF-8" standalone="no"?>
<svg
   xmlns:dc="http://purl.org/dc/elements/1.1/"
   xmlns:cc="http://creativecommons.org/ns#"
   xmlns:rdf="http://www.w3.org/1999/02/22-rdf-syntax-ns#"
   xmlns:svg="http://www.w3.org/2000/svg"
   xmlns="http://www.w3.org/2000/svg"
   xmlns:sodipodi="http://sodipodi.sourceforge.net/DTD/sodipodi-0.dtd"
   xmlns:inkscape="http://www.inkscape.org/namespaces/inkscape"
   width="100%"
   height="100%"
   viewBox="0 0 1421 642"
   version="1.1"
   xml:space="preserve"
   style="fill-rule:evenodd;clip-rule:evenodd;stroke-linejoin:round;stroke-miterlimit:1.41421;"
   id="svg1045"
   sodipodi:docname="linuxaus-transgender.svg"
   inkscape:version="0.92.3 (2405546, 2018-03-11)"><metadata
   id="metadata1051"><rdf:RDF><cc:Work
       rdf:about=""><dc:format>image/svg+xml</dc:format><dc:type
         rdf:resource="http://purl.org/dc/dcmitype/StillImage" /><dc:title></dc:title></cc:Work></rdf:RDF></metadata><defs
   id="defs1049">
        
        
        
        
        
        
        
        
        
        
        
        
        
        
        
        
        
        
        
        
        
        
        
        
        
        
        
        
        
        
        
        
        
        
        
        
        
        
        
        
        
        
        
        
        
    </defs><sodipodi:namedview
   pagecolor="#ffffff"
   bordercolor="#666666"
   borderopacity="1"
   objecttolerance="10"
   gridtolerance="10"
   guidetolerance="10"
   inkscape:pageopacity="0"
   inkscape:pageshadow="2"
   inkscape:window-width="1920"
   inkscape:window-height="1025"
   id="namedview1047"
   showgrid="false"
   inkscape:zoom="1.0098522"
   inkscape:cx="526.19085"
   inkscape:cy="321"
   inkscape:window-x="0"
   inkscape:window-y="27"
   inkscape:window-maximized="1"
   inkscape:current-layer="svg1045" />
    <path
   inkscape:connector-curvature="0"
   id="path953"
   style="fill:#d7d8d9;fill-rule:nonzero;stroke-width:4.16666985"
   d="m 391.73781,269.59188 c 13.32085,0 24.11669,10.79168 24.11669,24.11669 0,13.31251 -10.79584,24.11252 -24.11669,24.11252 -13.32084,0 -24.11668,-10.80001 -24.11668,-24.11252 0,-13.32501 10.79584,-24.11669 24.11668,-24.11669 z" /><path
   inkscape:connector-curvature="0"
   id="path955"
   style="fill:#ffffff;fill-rule:nonzero;stroke-width:0.94488189;stroke:#000000;stroke-opacity:1;stroke-miterlimit:1.41420996;stroke-dasharray:none"
   d="m 468.10871,259.54604 c 18.87085,0 34.16253,15.29168 34.16253,34.15836 0,18.86668 -15.29168,34.1667 -34.16253,34.1667 -18.86668,0 -34.16253,-15.30002 -34.16253,-34.1667 0,-18.86668 15.29585,-34.15836 34.16253,-34.15836 z" /><path
   inkscape:connector-curvature="0"
   id="path957"
   style="fill:#ff9db5;fill-rule:nonzero;stroke-width:4.16666985"
   d="m 500.2629,335.90444 c 14.42085,0 26.12502,11.69167 26.12502,26.12918 0,14.42918 -11.70417,26.12919 -26.12502,26.12919 -14.43334,0 -26.13752,-11.70001 -26.13752,-26.12919 0,-14.43751 11.70418,-26.12918 26.13752,-26.12918 z" /><path
   inkscape:connector-curvature="0"
   id="path959"
   style="fill:#2ccafc;fill-rule:nonzero;stroke-width:4.16666985"
   d="m 498.2504,211.31267 c 11.09584,0 20.09168,8.99584 20.09168,20.09585 0,11.09584 -8.99584,20.09168 -20.09168,20.09168 -11.10001,0 -20.09168,-8.99584 -20.09168,-20.09168 0,-11.10001 8.99167,-20.09585 20.09168,-20.09585 z" /><path
   inkscape:connector-curvature="0"
   id="path961"
   style="fill:#ffffff;fill-rule:nonzero;stroke-width:0.94488189;stroke:#000000;stroke-opacity:1;stroke-miterlimit:1.41420996;stroke-dasharray:none"
   d="m 407.81699,157.05013 c 28.85419,0 52.25421,23.39168 52.25421,52.25004 0,28.85419 -23.40002,52.25004 -52.25421,52.25004 -28.85835,0 -52.25421,-23.39585 -52.25421,-52.25004 0,-28.85836 23.39586,-52.25004 52.25421,-52.25004 z" /><path
   inkscape:connector-curvature="0"
   id="path963"
   style="fill:#d7d8d9;fill-rule:nonzero;stroke-width:4.16666985"
   d="m 329.43776,217.34184 c 9.99168,0 18.09168,8.09167 18.09168,18.08335 0,9.98751 -8.1,18.08751 -18.09168,18.08751 -9.98334,0 -18.08334,-8.1 -18.08334,-18.08751 0,-9.99168 8.1,-18.08335 18.08334,-18.08335 z" /><path
   inkscape:connector-curvature="0"
   id="path965"
   style="fill:#2ccafc;fill-rule:nonzero;stroke-width:4.16666985"
   d="m 47.770872,205.50016 c 9.987508,0 18.091681,8.10001 18.091681,18.09585 0,9.98334 -8.104173,18.08335 -18.091681,18.08335 -9.991675,0 -18.087515,-8.10001 -18.087515,-18.08335 0,-9.99584 8.09584,-18.09585 18.087515,-18.09585 z" /><path
   inkscape:connector-curvature="0"
   id="path967"
   style="fill:#2ccafc;fill-rule:nonzero;stroke-width:4.16666985"
   d="m 566.57545,358.00029 c 21.10002,0 38.19587,17.10418 38.19587,38.18753 0,21.09585 -17.09585,38.19169 -38.19587,38.19169 -21.07918,0 -38.18753,-17.09584 -38.18753,-38.19169 0,-21.08335 17.10835,-38.18753 38.18753,-38.18753 z" /><path
   inkscape:connector-curvature="0"
   id="path969"
   style="fill:#ff9db5;fill-rule:nonzero;stroke-width:4.16666985"
   d="m 404.64616,76.975062 c 17.97918,0 32.56252,14.575011 32.56252,32.558358 0,17.97918 -14.58334,32.55836 -32.56252,32.55836 -17.98335,0 -32.56253,-14.57918 -32.56253,-32.55836 0,-17.983347 14.57918,-32.558358 32.56253,-32.558358 z" /><path
   inkscape:connector-curvature="0"
   id="path971"
   style="fill:#2ccafc;fill-rule:nonzero;stroke-width:0.94488189;stroke:none;stroke-opacity:1;stroke-miterlimit:1.41420996;stroke-dasharray:none"
   d="m 293.26273,93.045908 c 28.85836,0 52.24588,23.391682 52.24588,52.250042 0,28.85002 -23.38752,52.24587 -52.24588,52.24587 -28.85419,0 -52.24587,-23.39585 -52.24587,-52.24587 0,-28.85836 23.39168,-52.250042 52.24587,-52.250042 z" /><path
   inkscape:connector-curvature="0"
   id="path973"
   style="fill:#d7d8d9;fill-rule:nonzero;stroke-width:4.16666985"
   d="m 275.17939,225.37935 c 7.7625,0 14.06251,6.3 14.06251,14.06251 0,7.775 -6.30001,14.07084 -14.06251,14.07084 -7.77501,0 -14.07085,-6.29584 -14.07085,-14.07084 0,-7.76251 6.29584,-14.06251 14.07085,-14.06251 z" /><path
   inkscape:connector-curvature="0"
   id="path975"
   style="fill:#ffffff;fill-rule:nonzero;stroke-width:0.94488189;stroke:#000000;stroke-opacity:1;stroke-miterlimit:1.41420996;stroke-dasharray:none"
   d="m 46.216704,401.16699 c 25.529187,0 46.229203,20.69168 46.229203,46.22087 0,25.52502 -20.700016,46.22087 -46.229203,46.22087 C 20.687517,493.60873 0,472.91288 0,447.38786 0,421.85867 20.687517,401.16699 46.216704,401.16699 Z" /><path
   inkscape:connector-curvature="0"
   id="path977"
   style="fill:#ffffff;fill-rule:nonzero;stroke-width:0.94488189;stroke:#000000;stroke-opacity:1;stroke-miterlimit:1.41420996;stroke-dasharray:none"
   d="m 141.78345,49.954207 c 32.51669,0 58.86671,26.358354 58.86671,58.866713 0,32.50836 -26.35002,58.87088 -58.86671,58.87088 -32.50836,0 -58.866717,-26.36252 -58.866717,-58.87088 0,-32.508359 26.358357,-58.866713 58.866717,-58.866713 z" /><path
   inkscape:connector-curvature="0"
   id="path979"
   style="fill:#d7d8d9;fill-rule:nonzero;stroke-width:4.16666985"
   d="m 190.33765,290.8294 c 8.42918,0 15.26251,6.83334 15.26251,15.26251 0,8.42917 -6.83333,15.26251 -15.26251,15.26251 -8.42917,0 -15.26251,-6.83334 -15.26251,-15.26251 0,-8.42917 6.83334,-15.26251 15.26251,-15.26251 z" /><path
   inkscape:connector-curvature="0"
   id="path981"
   style="fill:#ff9db5;fill-rule:nonzero;stroke-width:4.16666985"
   d="m 84.900068,251.49603 c 37.929192,0 68.670892,30.7417 68.670892,68.67089 0,37.9292 -30.7417,68.67922 -68.670892,68.67922 -37.929197,0 -68.670888,-30.75002 -68.670888,-68.67922 0,-37.92919 30.741691,-68.67089 68.670888,-68.67089 z" /><path
   inkscape:connector-curvature="0"
   id="path983"
   style="fill:#ffffff;fill-rule:nonzero;stroke-width:0.94488189;stroke:#000000;stroke-opacity:1;stroke-miterlimit:1.41420996;stroke-dasharray:none"
   d="m 503.81707,458.50453 c 23.30002,0 42.1917,18.89585 42.1917,42.20004 0,23.30835 -18.89168,42.2042 -42.1917,42.2042 -23.31669,0 -42.20837,-18.89585 -42.20837,-42.2042 0,-23.30419 18.89168,-42.20004 42.20837,-42.20004 z" /><path
   inkscape:connector-curvature="0"
   id="path985"
   style="fill:#ff9db5;fill-rule:nonzero;stroke-width:4.16666985"
   d="m 412.12116,511.06708 c 27.74586,0 50.24588,22.49168 50.24588,50.23337 0,27.74585 -22.50002,50.23754 -50.24588,50.23754 -27.74585,0 -50.24587,-22.49169 -50.24587,-50.23754 0,-27.74169 22.50002,-50.23337 50.24587,-50.23337 z" /><path
   inkscape:connector-curvature="0"
   id="path987"
   style="fill:#ff9db5;fill-rule:nonzero;stroke-width:4.16666985"
   d="m 212.45434,438.79618 c 31.30419,0 56.68338,25.37502 56.68338,56.67922 0,31.30002 -25.37919,56.67921 -56.68338,56.67921 -31.30836,0 -56.68338,-25.37919 -56.68338,-56.67921 0,-31.3042 25.37502,-56.67922 56.68338,-56.67922 z" /><path
   inkscape:connector-curvature="0"
   id="path989"
   style="fill:#2ccafc;fill-rule:nonzero;stroke-width:4.16666985"
   d="m 281.59189,528.81292 c 12.04584,0 21.80419,9.76251 21.80419,21.80002 0,12.04168 -9.75835,21.80418 -21.80419,21.80418 -12.03751,0 -21.80002,-9.7625 -21.80002,-21.80418 0,-12.03751 9.76251,-21.80002 21.80002,-21.80002 z" /><path
   inkscape:connector-curvature="0"
   id="path991"
   style="fill:#ff9db5;fill-rule:nonzero;stroke-width:4.16666985"
   d="m 494.88373,404.93366 c 11.35834,0 20.54168,9.19167 20.54168,20.53335 0,11.34584 -9.18334,20.53751 -20.54168,20.53751 -11.33751,0 -20.53335,-9.19167 -20.53335,-20.53751 0,-11.34168 9.19584,-20.53335 20.53335,-20.53335 z" /><path
   inkscape:connector-curvature="0"
   id="path993"
   style="fill:#2ccafc;fill-rule:nonzero;stroke-width:4.16666985"
   d="m 434.64201,435.05451 c 15.87918,0 28.75836,12.87502 28.75836,28.75419 0,15.87502 -12.87918,28.74586 -28.75836,28.74586 -15.87084,0 -28.74169,-12.87084 -28.74169,-28.74586 0,-15.87917 12.87085,-28.75419 28.74169,-28.75419 z" /><path
   inkscape:connector-curvature="0"
   id="path995"
   style="fill:#d7d8d9;fill-rule:nonzero;stroke-width:4.16666985"
   d="m 347.00861,398.08782 c 8.32084,0 15.06251,6.74584 15.06251,15.06668 0,8.30834 -6.74167,15.05418 -15.06251,15.05418 -8.32084,0 -15.06668,-6.74584 -15.06668,-15.05418 0,-8.32084 6.74584,-15.06668 15.06668,-15.06668 z" /><path
   inkscape:connector-curvature="0"
   id="path997"
   style="fill:#ffffff;fill-rule:nonzero;stroke-width:0.94488189;stroke:#000000;stroke-opacity:1;stroke-miterlimit:1.41420996;stroke-dasharray:none"
   d="m 338.80027,439.16285 c 24.95835,0 45.1792,20.22918 45.1792,45.17504 0,24.95418 -20.22085,45.1792 -45.1792,45.1792 -24.95835,0 -45.18337,-20.22502 -45.18337,-45.1792 0,-24.94586 20.22502,-45.17504 45.18337,-45.17504 z" /><path
   inkscape:connector-curvature="0"
   id="path999"
   style="fill:#d7d8d9;fill-rule:nonzero;stroke-width:4.16666985"
   d="m 270.33355,415.88783 c 10.58751,0 19.17085,8.58334 19.17085,19.16668 0,10.57918 -8.58334,19.17502 -19.17085,19.17502 -10.58334,0 -19.16668,-8.59584 -19.16668,-19.17502 0,-10.58334 8.58334,-19.16668 19.16668,-19.16668 z" /><path
   inkscape:connector-curvature="0"
   id="path1001"
   style="fill:#d7d8d9;fill-rule:nonzero;stroke-width:4.16666985"
   d="m 221.04184,395.34615 c 9.08334,0 16.43335,7.35834 16.43335,16.43335 0,9.07084 -7.35001,16.43334 -16.43335,16.43334 -9.06667,0 -16.43334,-7.3625 -16.43334,-16.43334 0,-9.07501 7.36667,-16.43335 16.43334,-16.43335 z" /><path
   inkscape:connector-curvature="0"
   id="path1003"
   style="fill:#d7d8d9;fill-rule:nonzero;stroke-width:4.16666985"
   d="m 186.81682,340.57944 c 9.83334,0 17.80001,7.96667 17.80001,17.79585 0,9.8375 -7.96667,17.80834 -17.80001,17.80834 -9.83335,0 -17.80418,-7.97084 -17.80418,-17.80834 0,-9.82918 7.97083,-17.79585 17.80418,-17.79585 z" /><path
   inkscape:connector-curvature="0"
   id="path1005"
   style="fill:#2ccafc;fill-rule:nonzero;stroke-width:4.16666985"
   d="m 138.88761,401.16699 c 16.63751,0 30.12503,13.47918 30.12503,30.11669 0,16.63751 -13.48752,30.12919 -30.12503,30.12919 -16.63751,0 -30.12502,-13.49168 -30.12502,-30.12919 0,-16.63751 13.48751,-30.11669 30.12502,-30.11669 z" /><path
   inkscape:connector-curvature="0"
   id="path1007"
   style="fill:#ffffff;fill-rule:nonzero;stroke-width:0.94488189;stroke:#000000;stroke-opacity:1;stroke-miterlimit:1.41420996;stroke-dasharray:none"
   d="m 582.9213,298.19607 c 8.32084,0 15.05835,6.74584 15.05835,15.06668 0,8.31667 -6.73751,15.06251 -15.05835,15.06251 -8.32501,0 -15.06668,-6.74584 -15.06668,-15.06251 0,-8.32084 6.74167,-15.06668 15.06668,-15.06668 z" /><path
   inkscape:connector-curvature="0"
   id="path1009"
   style="fill:#ff9db5;fill-rule:nonzero;stroke-width:4.16666985"
   d="m 230.00018,3.6500029 c 8.32084,0 15.05835,6.7500051 15.05835,15.0708451 0,8.316674 -6.73751,15.062512 -15.05835,15.062512 -8.32084,0 -15.06667,-6.745838 -15.06667,-15.062512 0,-8.32084 6.74583,-15.0708451 15.06667,-15.0708451 z" /><path
   inkscape:connector-curvature="0"
   id="path1011"
   style="fill:#2ccafc;fill-rule:nonzero;stroke-width:4.16666985"
   d="m 518.87125,611.53799 c 8.32084,0 15.06251,6.74584 15.06251,15.06668 0,8.31667 -6.74167,15.06251 -15.06251,15.06251 -8.32084,0 -15.06251,-6.74584 -15.06251,-15.06251 0,-8.32084 6.74167,-15.06668 15.06251,-15.06668 z" /><path
   inkscape:connector-curvature="0"
   id="path1013"
   style="fill:#ffffff;fill-rule:nonzero;stroke-width:4.16666985"
   d="m 302.38358,491.40039 c 93.19174,0 168.73763,-75.54589 168.73763,-168.73763 0,-93.19174 -75.54589,-168.73764 -168.73763,-168.73764 -93.19175,0 -168.73764,75.5459 -168.73764,168.73764 0,93.19174 75.54589,168.73763 168.73764,168.73763 z" /><path
   inkscape:connector-curvature="0"
   id="path1015"
   style="fill:#4e4e50;fill-rule:nonzero;stroke-width:4.16666985"
   d="m 776.81312,269.50022 v 9.22917 h -41.4792 v -74.70006 h 10.42501 v 65.47089 z" /><rect
   id="rect1017"
   style="fill:#4e4e50;fill-rule:nonzero;stroke-width:4.16666985"
   height="74.700058"
   width="10.420841"
   y="204.02933"
   x="808.94647" /><path
   inkscape:connector-curvature="0"
   id="path1019"
   style="fill:#4e4e50;fill-rule:nonzero;stroke-width:4.16666985"
   d="m 913.3924,204.02933 v 74.70006 H 895.15072 L 869.3132,213.15434 h -1.73751 v 65.57505 h -10.42084 v -74.70006 h 18.56252 l 25.30002,65.58339 h 1.95417 v -65.58339 z" /><path
   inkscape:connector-curvature="0"
   id="path1021"
   style="fill:#4e4e50;fill-rule:nonzero;stroke-width:4.16666985"
   d="m 957.4716,274.00439 c -4.4125,-3.94167 -6.62084,-10.18335 -6.62084,-18.72502 v -51.25004 h 10.42084 v 51.46671 c 0,10.13334 5.39584,15.19584 16.17918,15.19584 5.64584,0 9.86251,-1.22916 12.64585,-3.6875 2.79166,-2.45834 4.18333,-6.29584 4.18333,-11.50834 v -51.46671 h 10.31664 v 51.25004 c 0,8.54167 -2.2291,14.78335 -6.67914,18.72502 -4.45,3.94583 -11.2,5.92083 -20.24584,5.92083 -9.05001,0 -15.77918,-1.975 -20.20002,-5.92083 z" /><path
   inkscape:connector-curvature="0"
   id="path1023"
   style="fill:#4e4e50;fill-rule:nonzero;stroke-width:4.16666985"
   d="m 1059.1008,242.35853 -22.5833,-38.3292 h 11.6125 l 17.375,30.51252 17.5834,-30.51252 h 10.9708 l -22.5875,37.89586 22.5875,36.8042 h -11.6208 l -17.2584,-29.42502 -17.5917,29.42502 h -11.0708 z" /><path
   inkscape:connector-curvature="0"
   id="path1025"
   style="fill:#4e4e50;fill-rule:nonzero;stroke-width:4.16666985"
   d="m 761.50061,372.97113 h -5.64584 l -13.24584,43.7542 h 32.02919 z m 14.55001,48.85421 h -34.85003 l -6.51667,21.93335 h -5.32084 l 22.36669,-75.67506 h 13.79168 l 22.36251,75.67506 h -5.32083 z" /><path
   inkscape:connector-curvature="0"
   id="path1027"
   style="fill:#4e4e50;fill-rule:nonzero;stroke-width:4.16666985"
   d="m 825.82983,439.30868 c -4.16667,-3.62083 -6.24167,-9.40834 -6.24167,-17.37084 v -53.85421 h 5.53333 V 422.042 c 0,11.87501 6.52084,17.80835 19.55002,17.80835 6.94584,0 12.10001,-1.40833 15.47084,-4.23333 3.35834,-2.82501 5.04584,-7.34584 5.04584,-13.57502 v -53.95837 h 5.32084 v 53.85421 c 0,7.9625 -2.11667,13.75001 -6.35417,17.37084 -4.23334,3.62084 -10.65418,5.42501 -19.27502,5.42501 -8.53334,0 -14.89168,-1.80417 -19.05001,-5.42501 z" /><path
   inkscape:connector-curvature="0"
   id="path1029"
   style="fill:#4e4e50;fill-rule:nonzero;stroke-width:4.16666985"
   d="m 910.24656,443.10869 -3.90833,-0.4375 0.5375,-4.99167 c 9.99584,1.3 17.51668,1.95417 22.58335,1.95417 12.01667,0 18.02501,-5.82918 18.02501,-17.48335 0,-3.17917 -0.47083,-5.65834 -1.40833,-7.43334 -0.94167,-1.77084 -2.70001,-3.22084 -5.26667,-4.34167 -2.56667,-1.125 -6.38751,-2.11667 -11.45418,-2.9875 -6.07917,-1.0875 -10.76668,-2.35417 -14.06251,-3.80001 -3.29167,-1.44583 -5.69584,-3.50833 -7.21667,-6.19167 -1.525,-2.67083 -2.27917,-6.36667 -2.27917,-11.07084 0,-6.51251 1.93333,-11.37918 5.80417,-14.60418 3.87084,-3.21667 9.86251,-4.82917 17.97085,-4.82917 5.93334,0 13.24167,0.61667 21.92918,1.84583 l -0.54167,4.99584 c -10.275,-1.23333 -17.37084,-1.85 -21.27918,-1.85 -12.15834,0 -18.24168,4.70834 -18.24168,14.11668 0,3.7625 0.45417,6.55 1.35417,8.35834 0.90833,1.8125 2.7,3.25833 5.37917,4.34584 2.67917,1.08333 7.09167,2.24166 13.24584,3.47083 5.49584,1.01667 9.77084,2.225 12.81251,3.6375 3.0375,1.41251 5.26667,3.35001 6.67501,5.81251 1.41667,2.45833 2.11667,5.7875 2.11667,9.98751 0,7.81667 -1.88334,13.60417 -5.64584,17.36668 -3.76251,3.76667 -9.66251,5.64584 -17.69585,5.64584 -4.85,0 -11.32918,-0.50417 -19.43335,-1.51667 z" /><path
   inkscape:connector-curvature="0"
   id="path1031"
   style="fill:#4e4e50;fill-rule:nonzero;stroke-width:4.16666985"
   d="m 1008.2841,373.08363 h -24.53331 v -5 h 54.28341 v 5 h -24.3209 v 70.67506 h -5.4292 z" /><path
   inkscape:connector-curvature="0"
   id="path1033"
   style="fill:#4e4e50;fill-rule:nonzero;stroke-width:4.16666985"
   d="m 1098.83,408.25866 c 11.5792,0 17.3751,-5.8625 17.3751,-17.59168 0,-6.00417 -1.4334,-10.44168 -4.2917,-13.30001 -2.8583,-2.85834 -7.2583,-4.28334 -13.1917,-4.28334 h -21.9292 v 35.17503 z m -27.4666,-40.17503 h 27.3583 c 7.8167,0 13.625,1.79167 17.425,5.375 3.8,3.58334 5.7042,9.17918 5.7042,16.77502 0,12.45001 -5.0333,19.80001 -15.0958,22.04168 l 16.1791,31.48336 h -6.0791 l -15.7417,-30.50836 h -24.3209 v 30.50836 h -5.4291 z" /><path
   inkscape:connector-curvature="0"
   id="path1035"
   style="fill:#4e4e50;fill-rule:nonzero;stroke-width:4.16666985"
   d="m 1186.9926,372.97113 h -5.6458 l -13.2459,43.7542 h 32.0292 z m 14.5459,48.85421 h -34.8459 l -6.5208,21.93335 h -5.3167 l 22.3667,-75.67506 h 13.7875 l 22.3667,75.67506 h -5.3167 z" /><path
   inkscape:connector-curvature="0"
   id="path1037"
   style="fill:#4e4e50;fill-rule:nonzero;stroke-width:4.16666985"
   d="m 1288.6177,438.76702 v 4.99167 h -41.0417 v -75.67506 h 5.4292 v 70.68339 z" /><rect
   id="rect1039"
   style="fill:#4e4e50;fill-rule:nonzero;stroke-width:4.16666985"
   height="75.675064"
   width="5.4291711"
   y="368.08362"
   x="1322.0552" /><path
   inkscape:connector-curvature="0"
   id="path1041"
   style="fill:#4e4e50;fill-rule:nonzero;stroke-width:4.16666985"
   d="m 1393.7094,372.97113 h -5.6416 l -13.2459,43.7542 h 32.0292 z m 14.5501,48.85421 h -34.8501 l -6.5125,21.93335 h -5.325 l 22.3709,-75.67506 h 13.7875 l 22.3625,75.67506 h -5.3167 z" />
</svg>