<?xml version="1.0" encoding="UTF-8" standalone="no"?>
<!-- Created with Inkscape (http://www.inkscape.org/) -->

<svg
   xmlns:dc="http://purl.org/dc/elements/1.1/"
   xmlns:cc="http://creativecommons.org/ns#"
   xmlns:rdf="http://www.w3.org/1999/02/22-rdf-syntax-ns#"
   xmlns:svg="http://www.w3.org/2000/svg"
   xmlns="http://www.w3.org/2000/svg"
   xmlns:sodipodi="http://sodipodi.sourceforge.net/DTD/sodipodi-0.dtd"
   xmlns:inkscape="http://www.inkscape.org/namespaces/inkscape"
   width="850mm"
   height="2240mm"
   viewBox="0 0 850 2240"
   version="1.1"
   id="svg8"
   inkscape:version="0.92.3 (2405546, 2018-03-11)"
   sodipodi:docname="banner-2019.svg">
  <defs
     id="defs2" />
  <sodipodi:namedview
     id="base"
     pagecolor="#ffffff"
     bordercolor="#666666"
     borderopacity="1.0"
     inkscape:pageopacity="0.0"
     inkscape:pageshadow="2"
     inkscape:zoom="0.0875"
     inkscape:cx="3694.4583"
     inkscape:cy="4975.8918"
     inkscape:document-units="mm"
     inkscape:current-layer="layer1"
     showgrid="false"
     showguides="true"
     inkscape:guide-bbox="true"
     inkscape:window-width="1920"
     inkscape:window-height="1025"
     inkscape:window-x="1920"
     inkscape:window-y="27"
     inkscape:window-maximized="1">
    <sodipodi:guide
       position="-1215.5714,254"
       orientation="0,1"
       id="guide12"
       inkscape:locked="false" />
  </sodipodi:namedview>
  <metadata
     id="metadata5">
    <rdf:RDF>
      <cc:Work
         rdf:about="">
        <dc:format>image/svg+xml</dc:format>
        <dc:type
           rdf:resource="http://purl.org/dc/dcmitype/StillImage" />
        <dc:title></dc:title>
      </cc:Work>
    </rdf:RDF>
  </metadata>
  <g
     inkscape:label="Layer 1"
     inkscape:groupmode="layer"
     id="layer1"
     transform="translate(0,1943)">
    <g
       id="g358"
       transform="matrix(0.93870866,0,0,0.93870866,704.72152,-256.97285)">
      <path
         d="m -185.49807,-1022.6405 c 16.30206,0 29.50772,13.2165 29.50772,29.50502 0,16.30297 -13.20566,29.50862 -29.50772,29.50862 -16.29934,0 -29.505,-13.20565 -29.505,-29.50862 0,-16.28852 13.20566,-29.50502 29.505,-29.50502"
         style="fill:#d9d9da;fill-opacity:1;fill-rule:nonzero;stroke:none;stroke-width:0.90511686"
         id="path99"
         inkscape:connector-curvature="0" />
      <path
         d="m -92.048369,-1034.9338 c 23.086816,0 41.797392,18.7215 41.797392,41.79832 0,23.09134 -18.710576,41.81912 -41.797392,41.81912 -23.087721,0 -41.801921,-18.72778 -41.801921,-41.81912 0,-23.07682 18.7142,-41.79832 41.801921,-41.79832"
         style="fill:#d9d9da;fill-opacity:1;fill-rule:nonzero;stroke:none;stroke-width:0.90511686"
         id="path101"
         inkscape:connector-curvature="0" />
      <path
         d="m -52.707464,-941.49404 c 17.649779,0 31.968728,14.30809 31.968728,31.97959 0,17.66064 -14.318949,31.95787 -31.968728,31.95787 -17.660641,0 -31.980495,-14.29723 -31.980495,-31.95787 0,-17.6715 14.319854,-31.97959 31.980495,-31.97959"
         style="fill:#d9d9da;fill-opacity:1;fill-rule:nonzero;stroke:none;stroke-width:0.90511686"
         id="path103"
         inkscape:connector-curvature="0" />
      <path
         d="m -55.168477,-1093.9429 c 13.576753,0 24.582974,11.0026 24.582974,24.5794 0,13.5767 -11.006221,24.5839 -24.582974,24.5839 -13.576753,0 -24.579354,-11.0072 -24.579354,-24.5839 0,-13.5768 11.002601,-24.5794 24.579354,-24.5794"
         style="fill:#d9d9da;fill-opacity:1;fill-rule:nonzero;stroke:none;stroke-width:0.90511686"
         id="path105"
         inkscape:connector-curvature="0" />
      <path
         d="m -165.81901,-1160.3522 c 35.29955,0 63.93383,28.6316 63.93383,63.9447 0,35.3104 -28.63428,63.9239 -63.93383,63.9239 -35.32129,0 -63.93837,-28.6135 -63.93837,-63.9239 0,-35.3131 28.61708,-63.9447 63.93837,-63.9447"
         style="fill:#d9d9da;fill-opacity:1;fill-rule:nonzero;stroke:none;stroke-width:0.90511686"
         id="path107"
         inkscape:connector-curvature="0" />
      <path
         d="m -261.73334,-1086.5707 c 12.22994,0 22.14368,9.8993 22.14368,22.122 0,12.2263 -9.91374,22.1328 -22.14368,22.1328 -12.21546,0 -22.12559,-9.9065 -22.12559,-22.1328 0,-12.2227 9.91013,-22.122 22.12559,-22.122"
         style="fill:#d9d9da;fill-opacity:1;fill-rule:nonzero;stroke:none;stroke-width:0.90511686"
         id="path109"
         inkscape:connector-curvature="0" />
      <path
         d="m -606.38845,-1101.0562 c 12.21908,0 22.133,9.9065 22.133,22.1401 0,12.2154 -9.91392,22.1219 -22.133,22.1219 -12.22261,0 -22.13645,-9.9065 -22.13645,-22.1219 0,-12.2336 9.91384,-22.1401 22.13645,-22.1401"
         style="fill:#d9d9da;fill-opacity:1;fill-rule:nonzero;stroke:none;stroke-width:0.90511686"
         id="path111"
         inkscape:connector-curvature="0" />
      <path
         d="m 28.434453,-914.45729 c 25.813028,0 46.74114,20.93083 46.74114,46.7339 0,25.80579 -20.928112,46.73028 -46.74114,46.73028 -25.7958309,0 -46.723038,-20.92449 -46.723038,-46.73028 0,-25.80307 20.9272071,-46.7339 46.723038,-46.7339"
         style="fill:#abd61c;fill-opacity:1;fill-rule:nonzero;stroke:none;stroke-width:0.90511686"
         id="path113"
         inkscape:connector-curvature="0" />
      <path
         d="m -169.70468,-1258.3311 c 21.99524,0 39.836,17.8371 39.836,39.8396 0,21.998 -17.84076,39.8424 -39.836,39.8424 -22.00249,0 -39.84325,-17.8444 -39.84325,-39.8424 0,-22.0025 17.84076,-39.8396 39.84325,-39.8396"
         style="fill:#f2534c;fill-opacity:1;fill-rule:nonzero;stroke:none;stroke-width:0.90511686"
         id="path115"
         inkscape:connector-curvature="0" />
      <path
         d="m -305.99175,-1238.6629 c 35.31314,0 63.9266,28.6279 63.9266,63.9311 0,35.3104 -28.61346,63.9311 -63.9266,63.9311 -35.31042,0 -63.93112,-28.6207 -63.93112,-63.9311 0,-35.3032 28.6207,-63.9311 63.93112,-63.9311"
         style="fill:#d9d9da;fill-opacity:1;fill-rule:nonzero;stroke:none;stroke-width:0.90511686"
         id="path117"
         inkscape:connector-curvature="0" />
      <path
         d="m -328.12819,-1076.7312 c 9.50373,0 17.20717,7.6971 17.20717,17.2009 0,9.51 -7.70344,17.2144 -17.20717,17.2144 -9.50735,0 -17.2117,-7.7044 -17.2117,-17.2144 0,-9.5038 7.70435,-17.2009 17.2117,-17.2009"
         style="fill:#d9d9da;fill-opacity:1;fill-rule:nonzero;stroke:none;stroke-width:0.90511686"
         id="path119"
         inkscape:connector-curvature="0" />
      <path
         d="m -608.29056,-861.63557 c 31.24066,0 56.5623,25.32607 56.5623,56.56256 0,31.22653 -25.32164,56.55985 -56.5623,56.55985 -31.23712,0 -56.55921,-25.33332 -56.55921,-56.55985 0,-31.23649 25.32209,-56.56256 56.55921,-56.56256"
         style="fill:#d9d9da;fill-opacity:1;fill-rule:nonzero;stroke:none;stroke-width:0.90511686"
         id="path121"
         inkscape:connector-curvature="0" />
      <path
         d="m -491.34973,-1291.3959 c 39.7826,0 72.03101,32.252 72.03101,72.0274 0,39.7934 -32.24841,72.0382 -72.03101,72.0382 -39.78712,0 -72.02829,-32.2448 -72.02829,-72.0382 0,-39.7754 32.24117,-72.0274 72.02829,-72.0274"
         style="fill:#8fd5ca;fill-opacity:1;fill-rule:nonzero;stroke:none;stroke-width:0.90511686"
         id="path123"
         inkscape:connector-curvature="0" />
      <path
         d="m -431.93786,-996.65367 c 10.30657,0 18.67528,8.366 18.67528,18.6789 0,10.31743 -8.36871,18.6789 -18.67528,18.6789 -10.31652,0 -18.67165,-8.36147 -18.67165,-18.6789 0,-10.3129 8.35513,-18.6789 18.67165,-18.6789"
         style="fill:#d9d9da;fill-opacity:1;fill-rule:nonzero;stroke:none;stroke-width:0.90511686"
         id="path125"
         inkscape:connector-curvature="0" />
      <path
         d="m -560.95593,-1044.7796 c 46.41258,0 84.03467,37.6184 84.03467,84.03011 0,46.4162 -37.62209,84.03467 -84.03467,84.03467 -46.41186,0 -84.03078,-37.61847 -84.03078,-84.03467 0,-46.41171 37.61892,-84.03011 84.03078,-84.03011"
         style="fill:#f9e20d;fill-opacity:1;fill-rule:nonzero;stroke:none;stroke-width:0.90511686"
         id="path127"
         inkscape:connector-curvature="0" />
      <path
         d="m -48.359283,-791.47091 c 28.522043,0 51.6305818,23.12302 51.6305818,51.63782 0,28.52114 -23.1085388,51.63692 -51.6305818,51.63692 -28.518422,0 -51.644157,-23.11578 -51.644157,-51.63692 0,-28.5148 23.125735,-51.63782 51.644157,-51.63782"
         style="fill:#d9d9da;fill-opacity:1;fill-rule:nonzero;stroke:none;stroke-width:0.90511686"
         id="path129"
         inkscape:connector-curvature="0" />
      <path
         d="m -160.55848,-727.1515 c 33.95275,0 61.488214,27.51827 61.488214,61.46649 0,33.95292 -27.535464,61.47056 -61.488214,61.47056 -33.94912,0 -61.48096,-27.51764 -61.48096,-61.47056 0,-33.94822 27.53184,-61.46649 61.48096,-61.46649"
         style="fill:#f36519;fill-opacity:1;fill-rule:nonzero;stroke:none;stroke-width:0.90511686"
         id="path131"
         inkscape:connector-curvature="0" />
      <path
         d="m -404.87577,-815.59499 c 38.30817,0 69.3573,31.06451 69.3573,69.35458 0,38.30907 -31.04913,69.3582 -69.3573,69.3582 -38.30545,0 -69.35458,-31.04913 -69.35458,-69.3582 0,-38.29007 31.04913,-69.35458 69.35458,-69.35458"
         style="fill:#d9d9da;fill-opacity:1;fill-rule:nonzero;stroke:none;stroke-width:0.90511686"
         id="path133"
         inkscape:connector-curvature="0" />
      <path
         d="m -320.27992,-705.43865 c 14.73711,0 26.68737,11.95026 26.68737,26.68284 0,14.72626 -11.95026,26.66918 -26.68737,26.66918 -14.73259,0 -26.66837,-11.94292 -26.66837,-26.66918 0,-14.73258 11.93578,-26.68284 26.66837,-26.68284"
         style="fill:#d9d9da;fill-opacity:1;fill-rule:nonzero;stroke:none;stroke-width:0.90511686"
         id="path135"
         inkscape:connector-curvature="0" />
      <path
         d="m -59.284043,-857.02129 c 13.891733,0 25.13419,11.24336 25.13419,25.12062 0,13.88811 -11.242457,25.13057 -25.13419,25.13057 -13.877252,0 -25.127855,-11.24246 -25.127855,-25.13057 0,-13.87726 11.250603,-25.12062 25.127855,-25.12062"
         style="fill:#d9d9da;fill-opacity:1;fill-rule:nonzero;stroke:none;stroke-width:0.90511686"
         id="path137"
         inkscape:connector-curvature="0" />
      <path
         d="m -133.00129,-820.16221 c 19.43105,0 35.189137,15.75084 35.189137,35.17917 0,19.42834 -15.758087,35.17918 -35.189137,35.17918 -19.41475,0 -35.17646,-15.75084 -35.17646,-35.17918 0,-19.42833 15.76171,-35.17917 35.17646,-35.17917"
         style="fill:#d9d9da;fill-opacity:1;fill-rule:nonzero;stroke:none;stroke-width:0.90511686"
         id="path139"
         inkscape:connector-curvature="0" />
      <path
         d="m -240.22958,-865.40086 c 10.18257,0 18.43814,8.24833 18.43814,18.43089 0,10.18257 -8.25557,18.42818 -18.43814,18.42818 -10.18256,0 -18.43813,-8.24561 -18.43813,-18.42818 0,-10.18256 8.25557,-18.43089 18.43813,-18.43089"
         style="fill:#d9d9da;fill-opacity:1;fill-rule:nonzero;stroke:none;stroke-width:0.90511686"
         id="path141"
         inkscape:connector-curvature="0" />
      <path
         d="m -250.27818,-815.14244 c 30.54045,0 55.28272,24.74952 55.28272,55.28002 0,30.54045 -24.74227,55.28997 -55.28272,55.28997 -30.53684,0 -55.28273,-24.74952 -55.28273,-55.28997 0,-30.5305 24.74589,-55.28002 55.28273,-55.28002"
         style="fill:#d9d9da;fill-opacity:1;fill-rule:nonzero;stroke:none;stroke-width:0.90511686"
         id="path143"
         inkscape:connector-curvature="0" />
      <path
         d="m -334.04766,-843.62103 c 12.95132,0 23.44887,10.50026 23.44887,23.45158 0,12.94679 -10.49755,23.45881 -23.44887,23.45881 -12.95403,0 -23.46515,-10.51202 -23.46515,-23.45881 0,-12.95132 10.51112,-23.45158 23.46515,-23.45158"
         style="fill:#d9d9da;fill-opacity:1;fill-rule:nonzero;stroke:none;stroke-width:0.90511686"
         id="path145"
         inkscape:connector-curvature="0" />
      <path
         d="m -394.36464,-868.75975 c 11.10487,0 20.11079,9.00501 20.11079,20.10717 0,11.10579 -9.00592,20.11079 -20.11079,20.11079 -11.10941,0 -20.09993,-9.005 -20.09993,-20.11079 0,-11.10216 8.99052,-20.10717 20.09993,-20.10717"
         style="fill:#d9d9da;fill-opacity:1;fill-rule:nonzero;stroke:none;stroke-width:0.90511686"
         id="path147"
         inkscape:connector-curvature="0" />
      <path
         d="m -436.24802,-935.77732 c 12.03172,0 21.7762,9.75173 21.7762,21.77983 0,12.03805 -9.74448,21.78978 -21.7762,21.78978 -12.0281,0 -21.78617,-9.75173 -21.78617,-21.78978 0,-12.0281 9.75807,-21.77983 21.78617,-21.77983"
         style="fill:#d9d9da;fill-opacity:1;fill-rule:nonzero;stroke:none;stroke-width:0.90511686"
         id="path149"
         inkscape:connector-curvature="0" />
      <path
         d="m -494.89598,-861.63557 c 20.35427,0 36.86541,16.49394 36.86541,36.84821 0,20.35789 -16.51114,36.86993 -36.86541,36.86993 -20.35517,0 -36.86631,-16.51204 -36.86631,-36.86993 0,-20.35427 16.51114,-36.84821 36.86631,-36.84821"
         style="fill:#d9d9da;fill-opacity:1;fill-rule:nonzero;stroke:none;stroke-width:0.90511686"
         id="path151"
         inkscape:connector-curvature="0" />
      <path
         d="m 48.439346,-987.6378 c 10.182565,0 18.420033,8.25557 18.420033,18.43814 0,10.17623 -8.237468,18.4318 -18.420033,18.4318 -10.182565,0 -18.43542,-8.25557 -18.43542,-18.4318 0,-10.18257 8.252855,-18.43814 18.43542,-18.43814"
         style="fill:#d9d9da;fill-opacity:1;fill-rule:nonzero;stroke:none;stroke-width:0.90511686"
         id="path153"
         inkscape:connector-curvature="0" />
      <path
         d="m -383.4082,-1348.0472 c 10.18256,0 18.42455,8.2556 18.42455,18.4381 0,10.1754 -8.24199,18.4309 -18.42455,18.4309 -10.18257,0 -18.43814,-8.2555 -18.43814,-18.4309 0,-10.1825 8.25557,-18.4381 18.43814,-18.4381"
         style="fill:#d9d9da;fill-opacity:1;fill-rule:nonzero;stroke:none;stroke-width:0.90511686"
         id="path155"
         inkscape:connector-curvature="0" />
      <path
         d="m -29.931103,-604.21445 c 10.182564,0 18.416413,8.25566 18.416413,18.43822 0,10.17199 -8.233849,18.42764 -18.416413,18.42764 -10.182565,0 -18.439041,-8.25565 -18.439041,-18.42764 0,-10.18256 8.256476,-18.43822 18.439041,-18.43822"
         style="fill:#d9d9da;fill-opacity:1;fill-rule:nonzero;stroke:none;stroke-width:0.90511686"
         id="path157"
         inkscape:connector-curvature="0" />
      <path
         d="m -294.83347,-751.22489 c 114.03025,0 206.476168,-92.43868 206.476168,-206.47345 0,-114.04106 -92.445918,-206.47976 -206.476168,-206.47976 -114.03748,0 -206.47616,92.4387 -206.47616,206.47976 0,114.03477 92.43868,206.47345 206.47616,206.47345"
         style="fill:#ffffff;fill-opacity:1;fill-rule:nonzero;stroke:none;stroke-width:0.90511686"
         id="path159"
         inkscape:connector-curvature="0" />
    </g>
    <g
       id="g376"
       transform="matrix(0.69200856,0,0,0.69200856,347.53226,-333.59697)">
      <path
         d="m -336.48791,-516.65054 v 14.11348 h -63.43783 v -114.25292 h 15.94635 v 100.13944 h 47.49148"
         style="fill:#47464a;fill-opacity:1;fill-rule:nonzero;stroke:none;stroke-width:0.90511686"
         id="path161"
         inkscape:connector-curvature="0" />
      <path
         d="m -287.00517,-616.78998 h 15.94816 v 114.25292 h -15.94816 v -114.25292"
         style="fill:#47464a;fill-opacity:1;fill-rule:nonzero;stroke:none;stroke-width:0.90511686"
         id="path163"
         inkscape:connector-curvature="0" />
      <path
         d="m -126.91715,-616.78998 v 114.25292 h -27.8957 l -39.5174,-100.30505 h -2.66105 v 100.30505 h -15.94816 v -114.25292 h 28.40257 l 38.69375,100.30507 h 2.98688 v -100.30507 h 15.93911"
         style="fill:#47464a;fill-opacity:1;fill-rule:nonzero;stroke:none;stroke-width:0.90511686"
         id="path165"
         inkscape:connector-curvature="0" />
      <path
         d="m -58.98813,-509.75627 c -6.75217,-6.03894 -10.12826,-15.58521 -10.12826,-28.64966 v -78.38405 h 15.93911 v 78.71351 c 0,15.50375 8.24562,23.25336 24.7459,23.25336 8.63481,0 15.07924,-1.88446 19.3423402,-5.64612 4.2631,-3.76529 6.39013,-9.63859 6.39013,-17.60724 v -78.71351 H 13.08633 v 78.38405 c 0,13.06445 -3.4122898,22.61072 -10.2187698,28.64966 -6.80648,6.03532 -17.1338602,9.05117 -30.9731002,9.05117 -13.83924,0 -24.13042,-3.01585 -30.88259,-9.05117"
         style="fill:#47464a;fill-opacity:1;fill-rule:nonzero;stroke:none;stroke-width:0.90511686"
         id="path167"
         inkscape:connector-curvature="0" />
      <path
         d="m 96.94541,-558.16916 -34.54832,-58.62082 h 17.7765 l 26.56518,46.66332 26.90007,-46.66332 h 16.78087 l -34.53926,57.95556 34.53926,56.29736 h -17.76744 l -26.41131,-45.00784 -26.90008,45.00784 H 62.39709 l 34.54832,-55.6321"
         style="fill:#47464a;fill-opacity:1;fill-rule:nonzero;stroke:none;stroke-width:0.90511686"
         id="path169"
         inkscape:connector-curvature="0" />
    </g>
    <g
       id="g369"
       transform="matrix(0.69200856,0,0,0.69200856,-116.81071,-222.61142)">
      <path
         d="m 309.847,-610.81528 h -8.63482 l -20.26557,66.92977 h 48.99398 z m 22.24777,74.7364 h -53.30233 l -9.96534,33.54182 h -8.137 l 34.20437,-115.74542 h 21.08922 l 34.21342,115.74542 h -8.137 l -9.96534,-33.54182"
         style="fill:#47464a;fill-opacity:1;fill-rule:nonzero;stroke:none;stroke-width:0.90511686"
         id="path171"
         inkscape:connector-curvature="0" />
      <path
         d="m 408.74011,-509.34263 c -6.3721,-5.53298 -9.5581,-14.39045 -9.5581,-26.57061 v -82.36924 h 8.4719 v 82.52854 c 0,18.16569 9.9654,27.24221 29.896,27.24221 10.6261,0 18.5187,-2.16776 23.6598,-6.47702 5.1501,-4.32465 7.7206,-11.23703 7.7206,-20.76519 v -82.52854 h 8.137 v 82.36924 c 0,12.18016 -3.2403,21.03763 -9.7119,26.57061 -6.4806,5.53298 -16.3011,8.30173 -29.4796,8.30173 -13.0609,0 -22.7728,-2.76875 -29.1357,-8.30173"
         style="fill:#47464a;fill-opacity:1;fill-rule:nonzero;stroke:none;stroke-width:0.90511686"
         id="path173"
         inkscape:connector-curvature="0" />
      <path
         d="m 538.34371,-503.53359 -5.9737,-0.66526 0.8327,-7.63647 c 15.2783,1.98673 26.7824,2.98779 34.5392,2.98779 18.3739,0 27.5699,-8.90997 27.5699,-26.73625 0,-4.87224 -0.7241,-8.66649 -2.1632,-11.37822 -1.4392,-2.71535 -4.1274,-4.92112 -8.0556,-6.63994 -3.9282,-1.71067 -9.7662,-3.24213 -17.523,-4.56722 -9.2956,-1.6618 -16.4641,-3.59603 -21.5056,-5.81628 -5.0325,-2.2103 -8.7072,-5.36734 -11.0334,-9.45757 -2.3261,-4.10199 -3.4937,-9.74087 -3.4937,-16.94288 0,-9.96353 2.9597,-17.4063 8.8882,-22.33829 5.9195,-4.9211 15.0793,-7.3894 27.4794,-7.3894 9.0783,0 20.2655,0.9477 33.5526,2.8285 l -0.8327,7.6374 c -15.7218,-1.88174 -26.5742,-2.82849 -32.548,-2.82849 -18.6001,0 -27.9047,7.20473 -27.9047,21.59518 0,5.75202 0.6969,10.01964 2.0817,12.7884 1.3758,2.76784 4.1183,4.97814 8.2185,6.63993 4.0911,1.6618 10.8433,3.42949 20.2565,5.31032 8.4176,1.5559 14.9435,3.40505 19.5958,5.56828 4.6523,2.1569 8.0555,5.12025 10.2097,8.88554 2.1632,3.76528 3.2403,8.85656 3.2403,15.27384 0,11.9575 -2.8782,20.81407 -8.6348,26.56609 -5.7565,5.76288 -14.7805,8.63753 -27.063,8.63753 -7.4219,0 -17.333,-0.76664 -29.7331,-2.32253"
         style="fill:#47464a;fill-opacity:1;fill-rule:nonzero;stroke:none;stroke-width:0.90511686"
         id="path175"
         inkscape:connector-curvature="0" />
      <path
         d="m 688.63841,-610.64874 h -37.5352 v -7.63374 h 83.0354 v 7.63374 h -37.2003 v 108.11168 h -8.2999 v -108.11168"
         style="fill:#47464a;fill-opacity:1;fill-rule:nonzero;stroke:none;stroke-width:0.90511686"
         id="path177"
         inkscape:connector-curvature="0" />
      <path
         d="m 827.62811,-556.84407 c 17.7132,0 26.5833,-8.96247 26.5833,-26.89464 0,-9.19689 -2.1904,-15.97441 -6.5711,-20.35156 -4.3717,-4.36266 -11.0877,-6.55847 -20.1751,-6.55847 h -33.5346 v 53.80467 z m -42.0064,-61.43841 h 41.8435 c 11.9566,0 20.8358,2.7407 26.6557,8.22025 5.8199,5.47687 8.7163,14.0266 8.7163,25.65826 0,19.03913 -7.6935,30.27163 -23.0895,33.71198 l 24.7549,48.15493 h -9.3046 l -24.0761,-46.65877 h -37.1913 v 46.65877 h -8.3089 v -115.74542"
         style="fill:#47464a;fill-opacity:1;fill-rule:nonzero;stroke:none;stroke-width:0.90511686"
         id="path179"
         inkscape:connector-curvature="0" />
      <path
         d="m 962.97031,-610.81528 h -8.6348 l -20.2566,66.92977 h 48.985 z m 22.2477,74.7364 h -53.2932 l -9.9744,33.54182 h -8.128 l 34.2044,-115.74542 h 21.0892 l 34.20439,115.74542 h -8.12799 l -9.9744,-33.54182"
         style="fill:#47464a;fill-opacity:1;fill-rule:nonzero;stroke:none;stroke-width:0.90511686"
         id="path181"
         inkscape:connector-curvature="0" />
      <path
         d="m 1118.9038,-510.17353 v 7.63647 h -62.7699 v -115.74542 h 8.3 v 108.10895 h 54.4699"
         style="fill:#47464a;fill-opacity:1;fill-rule:nonzero;stroke:none;stroke-width:0.90511686"
         id="path183"
         inkscape:connector-curvature="0" />
      <path
         d="m 1170.5588,-618.28248 h 8.2999 v 115.74542 h -8.2999 v -115.74542"
         style="fill:#47464a;fill-opacity:1;fill-rule:nonzero;stroke:none;stroke-width:0.90511686"
         id="path185"
         inkscape:connector-curvature="0" />
      <path
         d="m 1280.6572,-610.81528 h -8.6348 l -20.2565,66.92977 h 48.994 z m 22.2569,74.7364 h -53.3205 l -9.9472,33.54182 h -8.1461 l 34.2135,-115.74542 h 21.0892 l 34.2134,115.74542 h -8.137 l -9.9653,-33.54182"
         style="fill:#47464a;fill-opacity:1;fill-rule:nonzero;stroke:none;stroke-width:0.90511686"
         id="path187"
         inkscape:connector-curvature="0" />
    </g>
    <rect
       id="rect378"
       width="1043.2142"
       height="402.16666"
       x="-105.83333"
       y="-2001.0952"
       style="stroke-width:0.26458332" />
  </g>
</svg>
