<?xml version="1.0" encoding="UTF-8" standalone="no"?>
<!-- Created with Inkscape (http://www.inkscape.org/) -->

<svg
   xmlns:dc="http://purl.org/dc/elements/1.1/"
   xmlns:cc="http://creativecommons.org/ns#"
   xmlns:rdf="http://www.w3.org/1999/02/22-rdf-syntax-ns#"
   xmlns:svg="http://www.w3.org/2000/svg"
   xmlns="http://www.w3.org/2000/svg"
   xmlns:sodipodi="http://sodipodi.sourceforge.net/DTD/sodipodi-0.dtd"
   xmlns:inkscape="http://www.inkscape.org/namespaces/inkscape"
   width="253.5137mm"
   height="267.44516mm"
   viewBox="0 0 253.5137 267.44516"
   version="1.1"
   id="svg1799"
   inkscape:version="0.92.4 (5da689c313, 2019-01-14)"
   sodipodi:docname="dots-only.svg">
  <defs
     id="defs1793" />
  <sodipodi:namedview
     id="base"
     pagecolor="#ffffff"
     bordercolor="#666666"
     borderopacity="1.0"
     inkscape:pageopacity="0.0"
     inkscape:pageshadow="2"
     inkscape:zoom="0.35"
     inkscape:cx="457.47634"
     inkscape:cy="379.6939"
     inkscape:document-units="mm"
     inkscape:current-layer="layer1"
     showgrid="false"
     fit-margin-top="0"
     fit-margin-left="0"
     fit-margin-right="0"
     fit-margin-bottom="0"
     inkscape:window-width="1864"
     inkscape:window-height="1017"
     inkscape:window-x="956"
     inkscape:window-y="27"
     inkscape:window-maximized="1" />
  <metadata
     id="metadata1796">
    <rdf:RDF>
      <cc:Work
         rdf:about="">
        <dc:format>image/svg+xml</dc:format>
        <dc:type
           rdf:resource="http://purl.org/dc/dcmitype/StillImage" />
        <dc:title></dc:title>
      </cc:Work>
    </rdf:RDF>
  </metadata>
  <g
     inkscape:label="Layer 1"
     inkscape:groupmode="layer"
     id="layer1"
     transform="translate(165.26383,18.151152)">
    <g
       id="g1898">
      <path
         d="m -1.0504577,93.325416 c 5.5843735,0 10.1083102,4.527031 10.1083102,10.105204 0,5.58437 -4.5239367,10.10829 -10.1083102,10.10829 -5.5843736,0 -10.1082823,-4.52392 -10.1082823,-10.10829 0,-5.578173 4.5239087,-10.105204 10.1082823,-10.105204 z"
         style="clip-rule:evenodd;fill:#d7d8d9;fill-rule:nonzero;stroke-width:3.10070562;stroke-linejoin:round;stroke-miterlimit:1.41420996"
         id="path1528"
         inkscape:connector-curvature="0" />
      <path
         d="m 30.961232,89.111561 c 7.909904,0 14.319063,6.415361 14.319063,14.319059 0,7.9099 -6.409159,14.32836 -14.319063,14.32836 -7.909895,0 -14.319046,-6.41846 -14.319046,-14.32836 0,-7.903698 6.409151,-14.319059 14.319046,-14.319059 z"
         style="clip-rule:evenodd;fill:#d7d8d9;fill-rule:nonzero;stroke-width:3.10070562;stroke-linejoin:round;stroke-miterlimit:1.41420996"
         id="path1530"
         inkscape:connector-curvature="0" />
      <path
         d="m 44.440004,121.12325 c 6.046378,0 10.951693,4.90221 10.951693,10.95478 0,6.04948 -4.905315,10.9486 -10.951693,10.9486 -6.049475,0 -10.954798,-4.89912 -10.954798,-10.9486 0,-6.05257 4.905323,-10.95478 10.954798,-10.95478 z"
         style="clip-rule:evenodd;fill:#d7d8d9;fill-rule:nonzero;stroke-width:3.10070562;stroke-linejoin:round;stroke-miterlimit:1.41420996"
         id="path1532"
         inkscape:connector-curvature="0" />
      <path
         d="m 43.596607,68.898063 c 4.651061,0 8.42152,3.770456 8.42152,8.421511 0,4.651064 -3.770459,8.42152 -8.42152,8.42152 -4.651055,0 -8.421511,-3.770456 -8.421511,-8.42152 0,-4.651055 3.770456,-8.421511 8.421511,-8.421511 z"
         style="clip-rule:evenodd;fill:#d7d8d9;fill-rule:nonzero;stroke-width:3.10070562;stroke-linejoin:round;stroke-miterlimit:1.41420996"
         id="path1534"
         inkscape:connector-curvature="0" />
      <path
         d="m 5.6904877,46.14818 c 12.0927443,0 21.9033793,9.807533 21.9033793,21.903389 0,12.098949 -9.810635,21.900286 -21.9033793,21.900286 -12.1020543,0 -21.9033967,-9.801337 -21.9033967,-21.900286 0,-12.095856 9.8013424,-21.903389 21.9033967,-21.903389 z"
         style="clip-rule:evenodd;fill:#d7d8d9;fill-rule:nonzero;stroke-width:3.10070562;stroke-linejoin:round;stroke-miterlimit:1.41420996"
         id="path1536"
         inkscape:connector-curvature="0" />
      <path
         d="m -27.167701,71.422036 c 4.189068,0 7.584333,3.392167 7.584333,7.58122 0,4.185957 -3.395265,7.581226 -7.584333,7.581226 -4.182852,0 -7.581212,-3.395269 -7.581212,-7.581226 0,-4.189053 3.39836,-7.58122 7.581212,-7.58122 z"
         style="clip-rule:evenodd;fill:#d7d8d9;fill-rule:nonzero;stroke-width:3.10070562;stroke-linejoin:round;stroke-miterlimit:1.41420996"
         id="path1538"
         inkscape:connector-curvature="0" />
      <path
         d="m -145.23945,66.460903 c 4.18904,0 7.5843,3.392174 7.5843,7.584327 0,4.185952 -3.39526,7.578127 -7.5843,7.578127 -4.18598,0 -7.58124,-3.392175 -7.58124,-7.578127 0,-4.192153 3.39526,-7.584327 7.58124,-7.584327 z"
         style="clip-rule:evenodd;fill:#d7d8d9;fill-rule:nonzero;stroke-width:3.10070562;stroke-linejoin:round;stroke-miterlimit:1.41420996"
         id="path1540"
         inkscape:connector-curvature="0" />
      <path
         d="m 72.237833,130.38505 c 8.843208,0 16.012041,7.16883 16.012041,16.00895 0,8.84011 -7.168833,16.00894 -16.012041,16.00894 -8.837012,0 -16.005851,-7.16883 -16.005851,-16.00894 0,-8.84012 7.168839,-16.00895 16.005851,-16.00895 z"
         style="clip-rule:evenodd;fill:#b7d134;fill-rule:nonzero;stroke-width:3.10070562;stroke-linejoin:round;stroke-miterlimit:1.41420996"
         id="path1542"
         inkscape:connector-curvature="0" />
      <path
         d="m 4.3602655,12.58304 c 7.5347195,0 13.6462315,6.10839 13.6462315,13.646206 0,7.537816 -6.111512,13.649308 -13.6462315,13.649308 -7.5377849,0 -13.6492971,-6.111492 -13.6492971,-13.649308 0,-7.537816 6.1115122,-13.646203 13.6492971,-13.646206 z"
         style="clip-rule:evenodd;fill:#f26d58;fill-rule:nonzero;stroke-width:3.10070562;stroke-linejoin:round;stroke-miterlimit:1.41420996"
         id="path1544"
         inkscape:connector-curvature="0" />
      <path
         d="m -42.330152,19.320874 c 12.09896,0 21.900302,9.807533 21.900302,21.900283 0,12.095853 -9.801342,21.900287 -21.900302,21.900287 -12.095839,0 -21.900275,-9.804434 -21.900275,-21.900287 0,-12.09275 9.804436,-21.900283 21.900275,-21.900283 z"
         style="clip-rule:evenodd;fill:#d7d8d9;fill-rule:nonzero;stroke-width:3.10070562;stroke-linejoin:round;stroke-miterlimit:1.41420996"
         id="path1546"
         inkscape:connector-curvature="0" />
      <path
         d="m -49.911364,74.792503 c 3.255733,0 5.894435,2.638698 5.894435,5.894441 0,3.255738 -2.638702,5.897538 -5.894435,5.897538 -3.258854,0 -5.897557,-2.6418 -5.897557,-5.897538 0,-3.255743 2.638703,-5.894441 5.897557,-5.894441 z"
         style="clip-rule:evenodd;fill:#d7d8d9;fill-rule:nonzero;stroke-width:3.10070562;stroke-linejoin:round;stroke-miterlimit:1.41420996"
         id="path1548"
         inkscape:connector-curvature="0" />
      <path
         d="m -145.8875,148.48077 c 10.70053,0 19.37629,8.67577 19.37629,19.37631 0,10.69743 -8.67576,19.37631 -19.37629,19.37631 -10.70366,0 -19.37633,-8.67888 -19.37633,-19.37631 0,-10.70054 8.67267,-19.37631 19.37633,-19.37631 z"
         style="clip-rule:evenodd;fill:#d7d8d9;fill-rule:nonzero;stroke-width:3.10070562;stroke-linejoin:round;stroke-miterlimit:1.41420996"
         id="path1550"
         inkscape:connector-curvature="0" />
      <path
         d="m -105.82949,1.2530611 c 13.630703,0 24.678508,11.0509149 24.678508,24.6754159 0,13.633802 -11.047805,24.678516 -24.678508,24.678516 -13.63071,0 -24.67542,-11.044714 -24.67542,-24.678516 0,-13.624501 11.04471,-24.6754159 24.67542,-24.6754159 z"
         style="clip-rule:evenodd;fill:#8ccecd;fill-rule:nonzero;stroke-width:3.10070562;stroke-linejoin:round;stroke-miterlimit:1.41420996"
         id="path1552"
         inkscape:connector-curvature="0" />
      <path
         d="m -85.476461,102.22754 c 3.531705,0 6.396738,2.86505 6.396738,6.39676 0,3.53481 -2.865033,6.39986 -6.396738,6.39986 -3.534799,0 -6.396767,-2.86505 -6.396767,-6.39986 0,-3.53171 2.861968,-6.39676 6.396767,-6.39676 z"
         style="clip-rule:evenodd;fill:#d7d8d9;fill-rule:nonzero;stroke-width:3.10070562;stroke-linejoin:round;stroke-miterlimit:1.41420996"
         id="path1554"
         inkscape:connector-curvature="0" />
      <path
         d="m -129.67393,85.741094 c 15.90043,0 28.78697,12.886532 28.78697,28.786946 0,15.90042 -12.88654,28.78696 -28.78697,28.78696 -15.90042,0 -28.78694,-12.88654 -28.78694,-28.78696 0,-15.900414 12.88652,-28.786946 28.78694,-28.786946 z"
         style="clip-rule:evenodd;fill:#fce115;fill-rule:nonzero;stroke-width:3.10070562;stroke-linejoin:round;stroke-miterlimit:1.41420996"
         id="path1556"
         inkscape:connector-curvature="0" />
      <path
         d="m 45.928342,172.51744 c 9.770325,0 17.686428,7.9192 17.686428,17.68953 0,9.77031 -7.916103,17.68952 -17.686428,17.68952 -9.770327,0 -17.692629,-7.91921 -17.692629,-17.68952 0,-9.77033 7.922302,-17.68953 17.692629,-17.68953 z"
         style="clip-rule:evenodd;fill:#d7d8d9;fill-rule:nonzero;stroke-width:3.10070562;stroke-linejoin:round;stroke-miterlimit:1.41420996"
         id="path1558"
         inkscape:connector-curvature="0" />
      <path
         d="m 7.4919901,194.55105 c 11.6307519,0 21.0630999,9.42615 21.0630999,21.0569 0,11.63075 -9.432348,21.05688 -21.0630999,21.05688 -11.6307458,0 -21.0631021,-9.42613 -21.0631021,-21.05688 0,-11.63075 9.4323563,-21.0569 21.0631021,-21.0569 z"
         style="clip-rule:evenodd;fill:#f47821;fill-rule:nonzero;stroke-width:3.10070562;stroke-linejoin:round;stroke-miterlimit:1.41420996"
         id="path1560"
         inkscape:connector-curvature="0" />
      <path
         d="m -76.205351,164.25406 c 13.12528,0 23.760701,10.63852 23.760701,23.7576 0,13.12219 -10.635421,23.76072 -23.760701,23.76072 -13.122187,0 -23.757608,-10.63853 -23.757608,-23.76072 0,-13.11908 10.635421,-23.7576 23.757608,-23.7576 z"
         style="clip-rule:evenodd;fill:#d7d8d9;fill-rule:nonzero;stroke-width:3.10070562;stroke-linejoin:round;stroke-miterlimit:1.41420996"
         id="path1562"
         inkscape:connector-curvature="0" />
      <path
         d="m -47.223047,201.98965 c 5.047926,0 9.140858,4.09293 9.140858,9.14088 0,5.04485 -4.092932,9.13468 -9.140858,9.13468 -5.047953,0 -9.137792,-4.08983 -9.137792,-9.13468 0,-5.04795 4.089839,-9.14088 9.137792,-9.14088 z"
         style="clip-rule:evenodd;fill:#d7d8d9;fill-rule:nonzero;stroke-width:3.10070562;stroke-linejoin:round;stroke-miterlimit:1.41420996"
         id="path1564"
         inkscape:connector-curvature="0" />
      <path
         d="m 42.18579,150.06213 c 4.759585,0 8.610656,3.85107 8.610656,8.60446 0,4.75648 -3.851071,8.60756 -8.610656,8.60756 -4.753386,0 -8.607563,-3.85108 -8.607563,-8.60756 0,-4.75339 3.854177,-8.60446 8.607563,-8.60446 z"
         style="clip-rule:evenodd;fill:#d7d8d9;fill-rule:nonzero;stroke-width:3.10070562;stroke-linejoin:round;stroke-miterlimit:1.41420996"
         id="path1566"
         inkscape:connector-curvature="0" />
      <path
         d="m 16.933628,162.6882 c 6.657231,0 12.05246,5.39523 12.05246,12.05245 0,6.65411 -5.395229,12.04934 -12.05246,12.04934 -6.650998,0 -12.0493177,-5.39523 -12.0493177,-12.04934 0,-6.65722 5.3983197,-12.05245 12.0493177,-12.05245 z"
         style="clip-rule:evenodd;fill:#d7d8d9;fill-rule:nonzero;stroke-width:3.10070562;stroke-linejoin:round;stroke-miterlimit:1.41420996"
         id="path1568"
         inkscape:connector-curvature="0" />
      <path
         d="m -19.800416,147.19087 c 3.488278,0 6.316129,2.82475 6.316129,6.31304 0,3.4883 -2.827851,6.31304 -6.316129,6.31304 -3.488279,0 -6.31613,-2.82474 -6.31613,-6.31304 0,-3.48829 2.827851,-6.31304 6.31613,-6.31304 z"
         style="clip-rule:evenodd;fill:#d7d8d9;fill-rule:nonzero;stroke-width:3.10070562;stroke-linejoin:round;stroke-miterlimit:1.41420996"
         id="path1570"
         inkscape:connector-curvature="0" />
      <path
         d="m -23.242203,164.40909 c 10.461771,0 18.9391067,8.47734 18.9391067,18.93602 0,10.46177 -8.4773357,18.9391 -18.9391067,18.9391 -10.46177,0 -18.939106,-8.47733 -18.939106,-18.9391 0,-10.45868 8.477336,-18.93602 18.939106,-18.93602 z"
         style="clip-rule:evenodd;fill:#d7d8d9;fill-rule:nonzero;stroke-width:3.10070562;stroke-linejoin:round;stroke-miterlimit:1.41420996"
         id="path1572"
         inkscape:connector-curvature="0" />
      <path
         d="m -51.942319,154.65117 c 4.440206,0 8.033901,3.59682 8.033901,8.03393 0,4.43711 -3.593695,8.03703 -8.033901,8.03703 -4.437139,0 -8.03705,-3.59992 -8.03705,-8.03703 0,-4.43711 3.599911,-8.03393 8.03705,-8.03393 z"
         style="clip-rule:evenodd;fill:#d7d8d9;fill-rule:nonzero;stroke-width:3.10070562;stroke-linejoin:round;stroke-miterlimit:1.41420996"
         id="path1574"
         inkscape:connector-curvature="0" />
      <path
         d="m -72.60544,146.04052 c 3.804556,0 6.88976,3.0852 6.88976,6.88666 0,3.80457 -3.085204,6.88977 -6.88976,6.88977 -3.804557,0 -6.883573,-3.0852 -6.883573,-6.88977 0,-3.80146 3.079016,-6.88666 6.883573,-6.88666 z"
         style="clip-rule:evenodd;fill:#d7d8d9;fill-rule:nonzero;stroke-width:3.10070562;stroke-linejoin:round;stroke-miterlimit:1.41420996"
         id="path1576"
         inkscape:connector-curvature="0" />
      <path
         d="m -86.952404,123.07979 c 4.120833,0 7.460297,3.34256 7.460297,7.4634 0,4.12393 -3.339464,7.4634 -7.460297,7.4634 -4.120834,0 -7.463392,-3.33947 -7.463392,-7.4634 0,-4.12084 3.342558,-7.4634 7.463392,-7.4634 z"
         style="clip-rule:evenodd;fill:#d7d8d9;fill-rule:nonzero;stroke-width:3.10070562;stroke-linejoin:round;stroke-miterlimit:1.41420996"
         id="path1578"
         inkscape:connector-curvature="0" />
      <path
         d="m -107.04496,148.48077 c 6.97346,0 12.632258,5.64948 12.632258,12.62297 0,6.97349 -5.658798,12.62918 -12.632258,12.62918 -6.9704,0 -12.62607,-5.65569 -12.62607,-12.62918 0,-6.97349 5.65567,-12.62297 12.62607,-12.62297 z"
         style="clip-rule:evenodd;fill:#d7d8d9;fill-rule:nonzero;stroke-width:3.10070562;stroke-linejoin:round;stroke-miterlimit:1.41420996"
         id="path1580"
         inkscape:connector-curvature="0" />
      <path
         d="m 79.090391,105.31585 c 3.48829,0 6.309933,2.82784 6.309933,6.31613 0,3.4852 -2.821643,6.31304 -6.309933,6.31304 -3.488298,0 -6.316141,-2.82784 -6.316141,-6.31304 0,-3.48829 2.827843,-6.31613 6.316141,-6.31613 z"
         style="clip-rule:evenodd;fill:#d7d8d9;fill-rule:nonzero;stroke-width:3.10070562;stroke-linejoin:round;stroke-miterlimit:1.41420996"
         id="path1582"
         inkscape:connector-curvature="0" />
      <path
         d="m -68.85047,-18.151152 c 3.488278,0 6.309913,2.827842 6.309913,6.316135 0,3.4851933 -2.821635,6.3130383 -6.309913,6.3130383 -3.488307,0 -6.316158,-2.827845 -6.316158,-6.3130383 0,-3.488293 2.827851,-6.316135 6.316158,-6.316135 z"
         style="clip-rule:evenodd;fill:#d7d8d9;fill-rule:nonzero;stroke-width:3.10070562;stroke-linejoin:round;stroke-miterlimit:1.41420996"
         id="path1584"
         inkscape:connector-curvature="0" />
      <path
         d="m 52.241378,236.66483 c 3.48829,0 6.309933,2.82785 6.309933,6.31614 0,3.4852 -2.821643,6.31304 -6.309933,6.31304 -3.48829,0 -6.316141,-2.82784 -6.316141,-6.31304 0,-3.48829 2.827851,-6.31614 6.316141,-6.31614 z"
         style="clip-rule:evenodd;fill:#d7d8d9;fill-rule:nonzero;stroke-width:3.10070562;stroke-linejoin:round;stroke-miterlimit:1.41420996"
         id="path1586"
         inkscape:connector-curvature="0" />
      <path
         d="m -38.506977,186.30318 c 39.0657801,0 70.733303,-31.66751 70.733303,-70.7302 0,-39.068888 -31.6675229,-70.7364 -70.733303,-70.7364 -39.065779,0 -70.733303,31.667512 -70.733303,70.7364 0,39.06269 31.667524,70.7302 70.733303,70.7302 z"
         style="clip-rule:evenodd;fill:#ffffff;fill-rule:nonzero;stroke-width:3.10070562;stroke-linejoin:round;stroke-miterlimit:1.41420996"
         id="path1588"
         inkscape:connector-curvature="0" />
    </g>
  </g>
</svg>
