<?xml version="1.0" encoding="UTF-8" standalone="no"?>
<!DOCTYPE svg PUBLIC "-//W3C//DTD SVG 1.1//EN" "http://www.w3.org/Graphics/SVG/1.1/DTD/svg11.dtd">
<svg width="100%" height="100%" viewBox="0 0 1209 363" version="1.1" xmlns="http://www.w3.org/2000/svg" xmlns:xlink="http://www.w3.org/1999/xlink" xml:space="preserve" xmlns:serif="http://www.serif.com/" style="fill-rule:evenodd;clip-rule:evenodd;stroke-linejoin:round;stroke-miterlimit:1.41421;">
    <g transform="matrix(4.16667,0,0,4.16667,0,0)">
        <path d="M52.96,36.699C54.761,36.699 56.22,38.159 56.22,39.958C56.22,41.759 54.761,43.218 52.96,43.218C51.159,43.218 49.7,41.759 49.7,39.958C49.7,38.159 51.159,36.699 52.96,36.699Z" style="fill:rgb(215,216,217);fill-rule:nonzero;"/>
        <path d="M63.284,35.34C65.835,35.34 67.902,37.409 67.902,39.958C67.902,42.509 65.835,44.579 63.284,44.579C60.733,44.579 58.666,42.509 58.666,39.958C58.666,37.409 60.733,35.34 63.284,35.34Z" style="fill:rgb(215,216,217);fill-rule:nonzero;"/>
        <path d="M67.631,45.664C69.581,45.664 71.163,47.245 71.163,49.197C71.163,51.148 69.581,52.728 67.631,52.728C65.68,52.728 64.098,51.148 64.098,49.197C64.098,47.245 65.68,45.664 67.631,45.664Z" style="fill:rgb(215,216,217);fill-rule:nonzero;"/>
        <path d="M67.359,28.821C68.859,28.821 70.075,30.037 70.075,31.537C70.075,33.037 68.859,34.253 67.359,34.253C65.859,34.253 64.643,33.037 64.643,31.537C64.643,30.037 65.859,28.821 67.359,28.821Z" style="fill:rgb(215,216,217);fill-rule:nonzero;"/>
        <path d="M55.134,21.484C59.034,21.484 62.198,24.647 62.198,28.548C62.198,32.45 59.034,35.611 55.134,35.611C51.231,35.611 48.07,32.45 48.07,28.548C48.07,24.647 51.231,21.484 55.134,21.484Z" style="fill:rgb(215,216,217);fill-rule:nonzero;"/>
        <path d="M44.537,29.635C45.888,29.635 46.983,30.729 46.983,32.08C46.983,33.43 45.888,34.525 44.537,34.525C43.188,34.525 42.092,33.43 42.092,32.08C42.092,30.729 43.188,29.635 44.537,29.635Z" style="fill:rgb(215,216,217);fill-rule:nonzero;"/>
        <path d="M6.458,28.035C7.809,28.035 8.904,29.129 8.904,30.481C8.904,31.831 7.809,32.925 6.458,32.925C5.108,32.925 4.013,31.831 4.013,30.481C4.013,29.129 5.108,28.035 6.458,28.035Z" style="fill:rgb(215,216,217);fill-rule:nonzero;"/>
        <path d="M76.596,48.651C79.448,48.651 81.76,50.963 81.76,53.814C81.76,56.665 79.448,58.977 76.596,58.977C73.746,58.977 71.434,56.665 71.434,53.814C71.434,50.963 73.746,48.651 76.596,48.651Z" style="fill:rgb(183,209,52);fill-rule:nonzero;"/>
        <path d="M54.705,10.659C57.135,10.659 59.106,12.629 59.106,15.06C59.106,17.491 57.135,19.462 54.705,19.462C52.274,19.462 50.303,17.491 50.303,15.06C50.303,12.629 52.274,10.659 54.705,10.659Z" style="fill:rgb(242,109,88);fill-rule:nonzero;"/>
        <path d="M39.647,12.832C43.549,12.832 46.71,15.995 46.71,19.895C46.71,23.796 43.549,26.958 39.647,26.958C35.746,26.958 32.584,23.796 32.584,19.895C32.584,15.995 35.746,12.832 39.647,12.832Z" style="fill:rgb(215,216,217);fill-rule:nonzero;"/>
        <path d="M37.202,30.722C38.252,30.722 39.103,31.573 39.103,32.623C39.103,33.673 38.252,34.525 37.202,34.525C36.151,34.525 35.3,33.673 35.3,32.623C35.3,31.573 36.151,30.722 37.202,30.722Z" style="fill:rgb(215,216,217);fill-rule:nonzero;"/>
        <path d="M6.249,54.487C9.7,54.487 12.498,57.285 12.498,60.736C12.498,64.186 9.7,66.985 6.249,66.985C2.797,66.985 0,64.186 0,60.736C0,57.285 2.797,54.487 6.249,54.487Z" style="fill:rgb(215,216,217);fill-rule:nonzero;"/>
        <path d="M19.168,7.005C23.564,7.005 27.127,10.569 27.127,14.963C27.127,19.36 23.564,22.922 19.168,22.922C14.772,22.922 11.21,19.36 11.21,14.963C11.21,10.569 14.772,7.005 19.168,7.005Z" style="fill:rgb(140,206,205);fill-rule:nonzero;"/>
        <path d="M25.732,39.57C26.871,39.57 27.795,40.494 27.795,41.633C27.795,42.773 26.871,43.697 25.732,43.697C24.592,43.697 23.669,42.773 23.669,41.633C23.669,40.494 24.592,39.57 25.732,39.57Z" style="fill:rgb(215,216,217);fill-rule:nonzero;"/>
        <path d="M11.478,34.253C16.606,34.253 20.762,38.409 20.762,43.537C20.762,48.665 16.606,52.821 11.478,52.821C6.35,52.821 2.194,48.665 2.194,43.537C2.194,38.409 6.35,34.253 11.478,34.253Z" style="fill:rgb(252,225,21);fill-rule:nonzero;"/>
        <path d="M68.111,62.239C71.262,62.239 73.815,64.793 73.815,67.944C73.815,71.095 71.262,73.649 68.111,73.649C64.96,73.649 62.405,71.095 62.405,67.944C62.405,64.793 64.96,62.239 68.111,62.239Z" style="fill:rgb(215,216,217);fill-rule:nonzero;"/>
        <path d="M55.715,69.345C59.466,69.345 62.508,72.385 62.508,76.136C62.508,79.887 59.466,82.927 55.715,82.927C51.964,82.927 48.922,79.887 48.922,76.136C48.922,72.385 51.964,69.345 55.715,69.345Z" style="fill:rgb(244,120,33);fill-rule:nonzero;"/>
        <path d="M28.722,59.574C32.955,59.574 36.385,63.005 36.385,67.236C36.385,71.468 32.955,74.899 28.722,74.899C24.49,74.899 21.06,71.468 21.06,67.236C21.06,63.005 24.49,59.574 28.722,59.574Z" style="fill:rgb(215,216,217);fill-rule:nonzero;"/>
        <path d="M38.069,71.744C39.697,71.744 41.017,73.064 41.017,74.692C41.017,76.319 39.697,77.638 38.069,77.638C36.441,77.638 35.122,76.319 35.122,74.692C35.122,73.064 36.441,71.744 38.069,71.744Z" style="fill:rgb(215,216,217);fill-rule:nonzero;"/>
        <path d="M66.904,54.997C68.439,54.997 69.681,56.239 69.681,57.772C69.681,59.306 68.439,60.548 66.904,60.548C65.371,60.548 64.128,59.306 64.128,57.772C64.128,56.239 65.371,54.997 66.904,54.997Z" style="fill:rgb(215,216,217);fill-rule:nonzero;"/>
        <path d="M58.76,59.069C60.907,59.069 62.647,60.809 62.647,62.956C62.647,65.102 60.907,66.842 58.76,66.842C56.615,66.842 54.874,65.102 54.874,62.956C54.874,60.809 56.615,59.069 58.76,59.069Z" style="fill:rgb(215,216,217);fill-rule:nonzero;"/>
        <path d="M46.913,54.071C48.038,54.071 48.95,54.982 48.95,56.107C48.95,57.232 48.038,58.143 46.913,58.143C45.788,58.143 44.876,57.232 44.876,56.107C44.876,54.982 45.788,54.071 46.913,54.071Z" style="fill:rgb(215,216,217);fill-rule:nonzero;"/>
        <path d="M45.803,59.624C49.177,59.624 51.911,62.358 51.911,65.731C51.911,69.105 49.177,71.839 45.803,71.839C42.429,71.839 39.695,69.105 39.695,65.731C39.695,62.358 42.429,59.624 45.803,59.624Z" style="fill:rgb(215,216,217);fill-rule:nonzero;"/>
        <path d="M36.547,56.477C37.979,56.477 39.138,57.637 39.138,59.068C39.138,60.499 37.979,61.66 36.547,61.66C35.116,61.66 33.955,60.499 33.955,59.068C33.955,57.637 35.116,56.477 36.547,56.477Z" style="fill:rgb(215,216,217);fill-rule:nonzero;"/>
        <path d="M29.883,53.7C31.11,53.7 32.105,54.695 32.105,55.921C32.105,57.148 31.11,58.143 29.883,58.143C28.656,58.143 27.663,57.148 27.663,55.921C27.663,54.695 28.656,53.7 29.883,53.7Z" style="fill:rgb(215,216,217);fill-rule:nonzero;"/>
        <path d="M25.256,46.295C26.585,46.295 27.662,47.373 27.662,48.702C27.662,50.032 26.585,51.109 25.256,51.109C23.927,51.109 22.849,50.032 22.849,48.702C22.849,47.373 23.927,46.295 25.256,46.295Z" style="fill:rgb(215,216,217);fill-rule:nonzero;"/>
        <path d="M18.776,54.487C21.025,54.487 22.85,56.309 22.85,58.558C22.85,60.807 21.025,62.631 18.776,62.631C16.528,62.631 14.704,60.807 14.704,58.558C14.704,56.309 16.528,54.487 18.776,54.487Z" style="fill:rgb(215,216,217);fill-rule:nonzero;"/>
        <path d="M78.806,40.566C79.931,40.566 80.841,41.478 80.841,42.603C80.841,43.727 79.931,44.639 78.806,44.639C77.681,44.639 76.769,43.727 76.769,42.603C76.769,41.478 77.681,40.566 78.806,40.566Z" style="fill:rgb(215,216,217);fill-rule:nonzero;"/>
        <path d="M31.094,0.747C32.219,0.747 33.129,1.659 33.129,2.784C33.129,3.908 32.219,4.82 31.094,4.82C29.969,4.82 29.057,3.908 29.057,2.784C29.057,1.659 29.969,0.747 31.094,0.747Z" style="fill:rgb(215,216,217);fill-rule:nonzero;"/>
        <path d="M70.147,82.927C71.272,82.927 72.182,83.839 72.182,84.964C72.182,86.088 71.272,87 70.147,87C69.022,87 68.11,86.088 68.11,84.964C68.11,83.839 69.022,82.927 70.147,82.927Z" style="fill:rgb(215,216,217);fill-rule:nonzero;"/>
        <path d="M40.88,66.685C53.479,66.685 63.692,56.472 63.692,43.874C63.692,31.274 53.479,21.061 40.88,21.061C28.281,21.061 18.068,31.274 18.068,43.874C18.068,56.472 28.281,66.685 40.88,66.685Z" style="fill:white;fill-rule:nonzero;"/>
        <path d="M106.101,49.839L106.101,51.399L99.092,51.399L99.092,38.776L100.854,38.776L100.854,49.839L106.101,49.839Z" style="fill:rgb(78,78,80);fill-rule:nonzero;"/>
        <rect x="111.568" y="38.776" width="1.762" height="12.623" style="fill:rgb(78,78,80);fill-rule:nonzero;"/>
        <path d="M129.255,38.776L129.255,51.399L126.173,51.399L121.807,40.317L121.513,40.317L121.513,51.399L119.751,51.399L119.751,38.776L122.889,38.776L127.164,49.858L127.494,49.858L127.494,38.776L129.255,38.776Z" style="fill:rgb(78,78,80);fill-rule:nonzero;"/>
        <path d="M136.76,50.601C136.014,49.934 135.641,48.879 135.641,47.436L135.641,38.776L137.402,38.776L137.402,47.472C137.402,49.185 138.313,50.041 140.136,50.041C141.09,50.041 141.802,49.833 142.273,49.417C142.744,49.002 142.979,48.353 142.979,47.472L142.979,38.776L144.723,38.776L144.723,47.436C144.723,48.879 144.346,49.934 143.594,50.601C142.842,51.268 141.701,51.601 140.172,51.601C138.643,51.601 137.506,51.268 136.76,50.601Z" style="fill:rgb(78,78,80);fill-rule:nonzero;"/>
        <path d="M153.988,45.253L150.171,38.776L152.135,38.776L155.07,43.931L158.042,38.776L159.896,38.776L156.08,45.179L159.896,51.399L157.933,51.399L155.015,46.426L152.043,51.399L150.171,51.399L153.988,45.253Z" style="fill:rgb(78,78,80);fill-rule:nonzero;"/>
        <path d="M177.51,39.436L176.556,39.436L174.317,46.831L179.73,46.831L177.51,39.436ZM179.968,47.693L174.079,47.693L172.978,51.399L172.079,51.399L175.858,38.611L178.188,38.611L181.968,51.399L181.069,51.399L179.968,47.693Z" style="fill:rgb(78,78,80);fill-rule:nonzero;"/>
        <path d="M188.436,50.647C187.732,50.036 187.38,49.057 187.38,47.711L187.38,38.611L188.316,38.611L188.316,47.729C188.316,49.736 189.417,50.739 191.619,50.739C192.793,50.739 193.665,50.499 194.233,50.023C194.802,49.545 195.086,48.782 195.086,47.729L195.086,38.611L195.985,38.611L195.985,47.711C195.985,49.057 195.627,50.036 194.912,50.647C194.196,51.258 193.111,51.564 191.655,51.564C190.212,51.564 189.139,51.258 188.436,50.647Z" style="fill:rgb(78,78,80);fill-rule:nonzero;"/>
        <path d="M202.755,51.289L202.095,51.215L202.187,50.372C203.875,50.591 205.146,50.702 206.003,50.702C208.033,50.702 209.049,49.717 209.049,47.748C209.049,47.209 208.969,46.79 208.81,46.491C208.651,46.191 208.354,45.947 207.92,45.757C207.486,45.568 206.841,45.399 205.984,45.253C204.957,45.069 204.165,44.855 203.608,44.61C203.052,44.366 202.646,44.017 202.389,43.565C202.132,43.112 202.003,42.489 202.003,41.693C202.003,40.592 202.33,39.77 202.985,39.225C203.639,38.681 204.651,38.409 206.021,38.409C207.024,38.409 208.26,38.513 209.728,38.721L209.636,39.565C207.899,39.357 206.7,39.253 206.04,39.253C203.985,39.253 202.957,40.048 202.957,41.638C202.957,42.274 203.034,42.746 203.187,43.051C203.339,43.357 203.642,43.601 204.095,43.785C204.547,43.968 205.293,44.164 206.333,44.372C207.263,44.544 207.984,44.748 208.498,44.987C209.012,45.225 209.388,45.552 209.626,45.968C209.865,46.384 209.984,46.947 209.984,47.656C209.984,48.977 209.666,49.956 209.03,50.591C208.394,51.228 207.397,51.545 206.04,51.545C205.22,51.545 204.125,51.461 202.755,51.289Z" style="fill:rgb(78,78,80);fill-rule:nonzero;"/>
        <path d="M219.36,39.455L215.213,39.455L215.213,38.611L224.387,38.611L224.387,39.455L220.277,39.455L220.277,51.399L219.36,51.399L219.36,39.455Z" style="fill:rgb(78,78,80);fill-rule:nonzero;"/>
        <path d="M234.716,45.399C236.673,45.399 237.653,44.409 237.653,42.427C237.653,41.412 237.411,40.663 236.927,40.179C236.444,39.697 235.702,39.455 234.698,39.455L230.993,39.455L230.993,45.399L234.716,45.399ZM230.075,38.611L234.698,38.611C236.019,38.611 237,38.914 237.643,39.519C238.286,40.124 238.606,41.069 238.606,42.354C238.606,44.457 237.756,45.699 236.055,46.079L238.79,51.399L237.762,51.399L235.102,46.244L230.993,46.244L230.993,51.399L230.075,51.399L230.075,38.611Z" style="fill:rgb(78,78,80);fill-rule:nonzero;"/>
        <path d="M249.669,39.436L248.715,39.436L246.477,46.831L251.889,46.831L249.669,39.436ZM252.127,47.693L246.239,47.693L245.137,51.399L244.239,51.399L248.018,38.611L250.348,38.611L254.127,51.399L253.229,51.399L252.127,47.693Z" style="fill:rgb(78,78,80);fill-rule:nonzero;"/>
        <path d="M266.897,50.555L266.897,51.399L259.962,51.399L259.962,38.611L260.879,38.611L260.879,50.555L266.897,50.555Z" style="fill:rgb(78,78,80);fill-rule:nonzero;"/>
        <rect x="272.604" y="38.611" width="0.917" height="12.788" style="fill:rgb(78,78,80);fill-rule:nonzero;"/>
        <path d="M284.768,39.436L283.814,39.436L281.576,46.831L286.989,46.831L284.768,39.436ZM287.227,47.693L281.336,47.693L280.237,51.399L279.337,51.399L283.117,38.611L285.447,38.611L289.227,51.399L288.328,51.399L287.227,47.693Z" style="fill:rgb(78,78,80);fill-rule:nonzero;"/>
    </g>
</svg>
