<?xml version="1.0" encoding="UTF-8" standalone="no"?>
<!-- Created with Inkscape (http://www.inkscape.org/) -->

<svg
   xmlns:dc="http://purl.org/dc/elements/1.1/"
   xmlns:cc="http://creativecommons.org/ns#"
   xmlns:rdf="http://www.w3.org/1999/02/22-rdf-syntax-ns#"
   xmlns:svg="http://www.w3.org/2000/svg"
   xmlns="http://www.w3.org/2000/svg"
   xmlns:sodipodi="http://sodipodi.sourceforge.net/DTD/sodipodi-0.dtd"
   xmlns:inkscape="http://www.inkscape.org/namespaces/inkscape"
   width="499.14056mm"
   height="34.231541mm"
   viewBox="0 0 499.14056 34.231541"
   version="1.1"
   id="svg1701"
   inkscape:version="0.92.4 (5da689c313, 2019-01-14)"
   sodipodi:docname="logotype.svg">
  <defs
     id="defs1695" />
  <sodipodi:namedview
     id="base"
     pagecolor="#ffffff"
     bordercolor="#666666"
     borderopacity="1.0"
     inkscape:pageopacity="0.0"
     inkscape:pageshadow="2"
     inkscape:zoom="0.35"
     inkscape:cx="396.11492"
     inkscape:cy="101.89563"
     inkscape:document-units="mm"
     inkscape:current-layer="layer1"
     showgrid="false"
     fit-margin-bottom="-0.4"
     fit-margin-top="0"
     fit-margin-left="0"
     fit-margin-right="0"
     inkscape:window-width="1864"
     inkscape:window-height="1017"
     inkscape:window-x="956"
     inkscape:window-y="27"
     inkscape:window-maximized="1" />
  <metadata
     id="metadata1698">
    <rdf:RDF>
      <cc:Work
         rdf:about="">
        <dc:format>image/svg+xml</dc:format>
        <dc:type
           rdf:resource="http://purl.org/dc/dcmitype/StillImage" />
        <dc:title></dc:title>
      </cc:Work>
    </rdf:RDF>
  </metadata>
  <g
     inkscape:label="Layer 1"
     inkscape:groupmode="layer"
     id="layer1"
     transform="translate(149.02862,-141.56168)">
    <path
       inkscape:connector-curvature="0"
       id="path1590"
       style="clip-rule:evenodd;fill:#4e4e50;fill-rule:nonzero;stroke-width:2.62519026;stroke-linejoin:round;stroke-miterlimit:1.41420996"
       d="m -130.62867,171.56765 v 4.09529 h -18.39995 v -33.13777 h 4.6256 v 29.04248 z" />
    <rect
       id="rect1592"
       style="clip-rule:evenodd;fill:#4e4e50;fill-rule:nonzero;stroke-width:2.62519026;stroke-linejoin:round;stroke-miterlimit:1.41420996"
       height="33.137775"
       width="4.6255851"
       y="142.52518"
       x="-116.27676" />
    <path
       inkscape:connector-curvature="0"
       id="path1594"
       style="clip-rule:evenodd;fill:#4e4e50;fill-rule:nonzero;stroke-width:2.62519026;stroke-linejoin:round;stroke-miterlimit:1.41420996"
       d="m -69.845005,142.52517 v 33.13777 h -8.090827 l -11.461592,-29.09237 h -0.771794 v 29.09237 h -4.625599 v -33.13777 h 8.237847 l 11.222702,29.09234 h 0.866307 v -29.09234 z" />
    <path
       inkscape:connector-curvature="0"
       id="path1596"
       style="clip-rule:evenodd;fill:#4e4e50;fill-rule:nonzero;stroke-width:2.62519026;stroke-linejoin:round;stroke-miterlimit:1.41420996"
       d="m -50.142947,173.56804 c -1.958407,-1.751 -2.937586,-4.52059 -2.937586,-8.30874 v -22.73413 h 4.622956 v 22.82864 c 0,4.49697 2.39156,6.74412 7.177276,6.74412 2.504432,0 4.373565,-0.54604 5.610017,-1.63812 1.236476,-1.08946 1.853392,-2.79321 1.853392,-5.106 v -22.82864 h 4.578331 v 22.73413 c 0,3.78815 -0.989693,6.55774 -2.963839,8.30874 -1.974135,1.751 -4.969491,2.62518 -8.983389,2.62518 -4.013921,0 -6.998775,-0.87418 -8.957158,-2.62518 z" />
    <path
       inkscape:connector-curvature="0"
       id="path1598"
       style="clip-rule:evenodd;fill:#4e4e50;fill-rule:nonzero;stroke-width:2.62519026;stroke-linejoin:round;stroke-miterlimit:1.41420996"
       d="M -4.9161712,159.52853 -14.936523,142.52517 h 5.1558753 l 7.7049352,13.53284 7.8020625,-13.53284 h 4.867105 L 0.57572545,159.33426 10.593455,175.66294 H 5.4402019 l -7.6603029,-13.05507 -7.802063,13.05507 h -4.914359 z" />
    <path
       inkscape:connector-curvature="0"
       id="path1600"
       style="clip-rule:evenodd;fill:#4e4e50;fill-rule:nonzero;stroke-width:2.62519026;stroke-linejoin:round;stroke-miterlimit:1.41420996"
       d="m 56.833553,144.25778 h -2.50443 l -5.877803,19.41328 h 14.210156 z m 6.452722,21.67621 H 47.826529 l -2.89034,9.72895 h -2.360041 l 9.92059,-33.57093 h 6.116693 l 9.923225,33.57093 h -2.360049 z" />
    <path
       inkscape:connector-curvature="0"
       id="path1602"
       style="clip-rule:evenodd;fill:#4e4e50;fill-rule:nonzero;stroke-width:2.62519026;stroke-linejoin:round;stroke-miterlimit:1.41420996"
       d="m 85.516385,173.68879 c -1.848137,-1.60398 -2.772207,-4.17406 -2.772207,-7.70756 v -23.88922 h 2.457183 v 23.93649 c 0,5.26876 2.890333,7.9018 8.670992,7.9018 3.081986,0 5.371152,-0.63004 6.862257,-1.87963 1.49373,-1.25484 2.23928,-3.25785 2.23928,-6.02217 v -23.93649 h 2.36005 v 23.88922 c 0,3.5335 -0.93981,6.10358 -2.81683,7.70756 -1.87963,1.604 -4.727968,2.4073 -8.550244,2.4073 -3.788153,0 -6.604973,-0.8033 -8.450481,-2.4073 z" />
    <path
       inkscape:connector-curvature="0"
       id="path1604"
       style="clip-rule:evenodd;fill:#4e4e50;fill-rule:nonzero;stroke-width:2.62519026;stroke-linejoin:round;stroke-miterlimit:1.41420996"
       d="m 123.10648,175.37416 -1.73261,-0.19431 0.2415,-2.21304 c 4.43134,0.57494 7.76793,0.86633 10.01773,0.86633 5.32913,0 7.99634,-2.58582 7.99634,-7.75483 0,-1.41497 -0.21003,-2.51491 -0.62744,-3.29984 -0.41739,-0.78756 -1.19709,-1.4281 -2.33641,-1.92691 -1.13934,-0.49616 -2.83257,-0.93981 -5.08237,-1.32308 -2.69608,-0.48304 -4.77522,-1.04483 -6.23744,-1.68799 -1.45962,-0.64056 -2.52543,-1.55676 -3.20012,-2.74334 -0.67466,-1.18921 -1.01333,-2.82469 -1.01333,-4.91436 0,-2.89031 0.85845,-5.04822 2.57795,-6.47896 1.71687,-1.4281 4.37356,-2.14215 7.97007,-2.14215 2.63307,0 5.87781,0.27301 9.73159,0.81904 l -0.24153,2.21568 c -4.55994,-0.54605 -7.70756,-0.81906 -9.44017,-0.81906 -5.39478,0 -8.09347,2.08701 -8.09347,6.26108 0,1.6696 0.20217,2.9087 0.60379,3.70938 0.39903,0.80332 1.19447,1.44386 2.38368,1.9269 1.18659,0.4804 3.14497,0.99494 5.87517,1.54097 2.44143,0.45154 4.33418,0.98708 5.68353,1.6145 1.34935,0.6248 2.33643,1.48323 2.96123,2.57532 0.62742,1.09208 0.93982,2.57007 0.93982,4.43132 0,3.46787 -0.83483,6.03793 -2.50443,7.70491 -1.66963,1.67225 -4.28694,2.50446 -7.84932,2.50446 -2.15265,0 -5.02725,-0.22051 -8.62376,-0.67207 z" />
    <path
       inkscape:connector-curvature="0"
       id="path1606"
       style="clip-rule:evenodd;fill:#4e4e50;fill-rule:nonzero;stroke-width:2.62519026;stroke-linejoin:round;stroke-miterlimit:1.41420996"
       d="M 166.69775,144.30767 H 155.8111 v -2.21566 h 24.0835 v 2.21566 h -10.78952 v 31.35527 h -2.40733 z" />
    <path
       inkscape:connector-curvature="0"
       id="path1608"
       style="clip-rule:evenodd;fill:#4e4e50;fill-rule:nonzero;stroke-width:2.62519026;stroke-linejoin:round;stroke-miterlimit:1.41420996"
       d="m 207.01018,159.91179 c 5.1375,0 7.71018,-2.59894 7.71018,-7.80205 0,-2.66457 -0.6353,-4.63083 -1.90587,-5.90143 -1.26798,-1.26534 -3.21586,-1.90064 -5.85155,-1.90064 h -9.72634 v 15.60412 z m -12.1835,-17.81978 h 12.13626 c 3.46787,0 6.04319,0.79542 7.73118,2.38366 1.68799,1.58826 2.52806,4.06905 2.52806,7.44243 0,5.52077 -2.23142,8.78125 -6.69686,9.77884 l 7.1799,13.966 h -2.6987 l -6.98301,-13.53285 H 197.2366 v 13.53285 h -2.40992 z" />
    <path
       inkscape:connector-curvature="0"
       id="path1610"
       style="clip-rule:evenodd;fill:#4e4e50;fill-rule:nonzero;stroke-width:2.62519026;stroke-linejoin:round;stroke-miterlimit:1.41420996"
       d="m 246.26464,144.25778 h -2.50444 l -5.87517,19.41328 h 14.20753 z m 6.45272,21.67621 h -15.45708 l -2.89298,9.72895 h -2.35744 l 9.92064,-33.57093 h 6.11666 l 9.92058,33.57093 h -2.35739 z" />
    <path
       inkscape:connector-curvature="0"
       id="path1612"
       style="clip-rule:evenodd;fill:#4e4e50;fill-rule:nonzero;stroke-width:2.62519026;stroke-linejoin:round;stroke-miterlimit:1.41420996"
       d="m 291.49142,173.44728 v 2.21566 h -18.20565 v -33.57093 h 2.40728 v 31.35527 z" />
    <rect
       id="rect1614"
       style="clip-rule:evenodd;fill:#4e4e50;fill-rule:nonzero;stroke-width:2.62519026;stroke-linejoin:round;stroke-miterlimit:1.41420996"
       height="33.57093"
       width="2.4072993"
       y="142.09203"
       x="306.47342" />
    <path
       inkscape:connector-curvature="0"
       id="path1616"
       style="clip-rule:evenodd;fill:#4e4e50;fill-rule:nonzero;stroke-width:2.62519026;stroke-linejoin:round;stroke-miterlimit:1.41420996"
       d="m 338.40623,144.25778 h -2.50443 l -5.87517,19.41328 h 14.21015 z m 6.4553,21.67621 h -15.46496 l -2.8851,9.72895 h -2.36266 l 9.9232,-33.57093 h 6.11673 l 9.92321,33.57093 h -2.36008 z" />
  </g>
</svg>
