<?xml version="1.0" encoding="UTF-8" standalone="no"?>
<!DOCTYPE svg PUBLIC "-//W3C//DTD SVG 1.1//EN" "http://www.w3.org/Graphics/SVG/1.1/DTD/svg11.dtd">
<svg width="100%" height="100%" viewBox="0 0 1417 642" version="1.1" xmlns="http://www.w3.org/2000/svg" xmlns:xlink="http://www.w3.org/1999/xlink" xml:space="preserve" xmlns:serif="http://www.serif.com/" style="fill-rule:evenodd;clip-rule:evenodd;stroke-linejoin:round;stroke-miterlimit:1.41421;">
    <g transform="matrix(4.16667,0,0,4.16667,0,0)">
        <path d="M94.017,64.702C97.214,64.702 99.805,67.292 99.805,70.49C99.805,73.686 97.214,76.277 94.017,76.277C90.82,76.277 88.229,73.686 88.229,70.49C88.229,67.292 90.82,64.702 94.017,64.702Z" style="fill:rgb(215,216,217);fill-rule:nonzero;"/>
        <path d="M112.346,62.291C116.875,62.291 120.545,65.961 120.545,70.49C120.545,75.017 116.875,78.69 112.346,78.69C107.818,78.69 104.147,75.017 104.147,70.49C104.147,65.961 107.818,62.291 112.346,62.291Z" style="fill:rgb(215,216,217);fill-rule:nonzero;"/>
        <path d="M120.063,80.617C123.524,80.617 126.333,83.424 126.333,86.889C126.333,90.352 123.524,93.159 120.063,93.159C116.599,93.159 113.79,90.352 113.79,86.889C113.79,83.424 116.599,80.617 120.063,80.617Z" style="fill:rgb(215,216,217);fill-rule:nonzero;"/>
        <path d="M119.58,50.716C122.243,50.716 124.402,52.875 124.402,55.539C124.402,58.202 122.243,60.36 119.58,60.36C116.916,60.36 114.758,58.202 114.758,55.539C114.758,52.875 116.916,50.716 119.58,50.716Z" style="fill:rgb(215,216,217);fill-rule:nonzero;"/>
        <path d="M97.876,37.693C104.801,37.693 110.417,43.306 110.417,50.233C110.417,57.158 104.801,62.773 97.876,62.773C90.95,62.773 85.335,57.158 85.335,50.233C85.335,43.306 90.95,37.693 97.876,37.693Z" style="fill:rgb(215,216,217);fill-rule:nonzero;"/>
        <path d="M79.065,52.162C81.463,52.162 83.407,54.105 83.407,56.503C83.407,58.9 81.463,60.844 79.065,60.844C76.669,60.844 74.725,58.9 74.725,56.503C74.725,54.105 76.669,52.162 79.065,52.162Z" style="fill:rgb(215,216,217);fill-rule:nonzero;"/>
        <path d="M11.465,49.321C13.862,49.321 15.807,51.265 15.807,53.663C15.807,56.06 13.862,58.003 11.465,58.003C9.067,58.003 7.124,56.06 7.124,53.663C7.124,51.265 9.067,49.321 11.465,49.321Z" style="fill:rgb(215,216,217);fill-rule:nonzero;"/>
        <path d="M135.978,85.921C141.042,85.921 145.145,90.025 145.145,95.086C145.145,100.148 141.042,104.252 135.978,104.252C130.919,104.252 126.813,100.148 126.813,95.086C126.813,90.025 130.919,85.921 135.978,85.921Z" style="fill:rgb(183,209,52);fill-rule:nonzero;"/>
        <path d="M97.115,18.475C101.43,18.475 104.93,21.973 104.93,26.288C104.93,30.604 101.43,34.103 97.115,34.103C92.799,34.103 89.3,30.604 89.3,26.288C89.3,21.973 92.799,18.475 97.115,18.475Z" style="fill:rgb(242,109,88);fill-rule:nonzero;"/>
        <path d="M70.383,22.331C77.309,22.331 82.922,27.945 82.922,34.871C82.922,41.796 77.309,47.41 70.383,47.41C63.458,47.41 57.844,41.796 57.844,34.871C57.844,27.945 63.458,22.331 70.383,22.331Z" style="fill:rgb(215,216,217);fill-rule:nonzero;"/>
        <path d="M66.043,54.091C67.906,54.091 69.418,55.604 69.418,57.466C69.418,59.332 67.906,60.843 66.043,60.843C64.177,60.843 62.666,59.332 62.666,57.466C62.666,55.604 64.177,54.091 66.043,54.091Z" style="fill:rgb(215,216,217);fill-rule:nonzero;"/>
        <path d="M11.092,96.28C17.219,96.28 22.187,101.247 22.187,107.374C22.187,113.5 17.219,118.467 11.092,118.467C4.965,118.467 0,113.5 0,107.374C0,101.247 4.965,96.28 11.092,96.28Z" style="fill:rgb(215,216,217);fill-rule:nonzero;"/>
        <path d="M34.028,11.989C41.832,11.989 48.156,18.315 48.156,26.118C48.156,33.92 41.832,40.247 34.028,40.247C26.226,40.247 19.9,33.92 19.9,26.118C19.9,18.315 26.226,11.989 34.028,11.989Z" style="fill:rgb(140,206,205);fill-rule:nonzero;"/>
        <path d="M45.681,69.799C47.704,69.799 49.344,71.44 49.344,73.462C49.344,75.486 47.704,77.125 45.681,77.125C43.658,77.125 42.018,75.486 42.018,73.462C42.018,71.44 43.658,69.799 45.681,69.799Z" style="fill:rgb(215,216,217);fill-rule:nonzero;"/>
        <path d="M20.376,60.36C29.479,60.36 36.857,67.738 36.857,76.841C36.857,85.944 29.479,93.323 20.376,93.323C11.273,93.323 3.895,85.944 3.895,76.841C3.895,67.738 11.273,60.36 20.376,60.36Z" style="fill:rgb(252,225,21);fill-rule:nonzero;"/>
        <path d="M120.916,110.042C126.508,110.042 131.042,114.577 131.042,120.17C131.042,125.763 126.508,130.299 120.916,130.299C115.32,130.299 110.786,125.763 110.786,120.17C110.786,114.577 115.32,110.042 120.916,110.042Z" style="fill:rgb(215,216,217);fill-rule:nonzero;"/>
        <path d="M98.909,122.657C105.568,122.657 110.968,128.054 110.968,134.713C110.968,141.372 105.568,146.769 98.909,146.769C92.25,146.769 86.85,141.372 86.85,134.713C86.85,128.054 92.25,122.657 98.909,122.657Z" style="fill:rgb(244,120,33);fill-rule:nonzero;"/>
        <path d="M50.989,105.312C58.502,105.312 64.593,111.402 64.593,118.914C64.593,126.426 58.502,132.518 50.989,132.518C43.475,132.518 37.385,126.426 37.385,118.914C37.385,111.402 43.475,105.312 50.989,105.312Z" style="fill:rgb(215,216,217);fill-rule:nonzero;"/>
        <path d="M67.582,126.915C70.473,126.915 72.815,129.259 72.815,132.148C72.815,135.037 70.473,137.381 67.582,137.381C64.693,137.381 62.35,135.037 62.35,132.148C62.35,129.259 64.693,126.915 67.582,126.915Z" style="fill:rgb(215,216,217);fill-rule:nonzero;"/>
        <path d="M118.772,97.185C121.498,97.185 123.702,99.391 123.702,102.112C123.702,104.835 121.498,107.041 118.772,107.041C116.051,107.041 113.844,104.835 113.844,102.112C113.844,99.391 116.051,97.185 118.772,97.185Z" style="fill:rgb(215,216,217);fill-rule:nonzero;"/>
        <path d="M104.314,104.414C108.125,104.414 111.216,107.504 111.216,111.314C111.216,115.125 108.125,118.214 104.314,118.214C100.505,118.214 97.416,115.125 97.416,111.314C97.416,107.504 100.505,104.414 104.314,104.414Z" style="fill:rgb(215,216,217);fill-rule:nonzero;"/>
        <path d="M83.282,95.542C85.279,95.542 86.897,97.16 86.897,99.157C86.897,101.152 85.279,102.771 83.282,102.771C81.285,102.771 79.666,101.152 79.666,99.157C79.666,97.16 81.285,95.542 83.282,95.542Z" style="fill:rgb(215,216,217);fill-rule:nonzero;"/>
        <path d="M81.312,105.4C87.302,105.4 92.155,110.254 92.155,116.242C92.155,122.231 87.302,127.084 81.312,127.084C75.322,127.084 70.468,122.231 70.468,116.242C70.468,110.254 75.322,105.4 81.312,105.4Z" style="fill:rgb(215,216,217);fill-rule:nonzero;"/>
        <path d="M64.88,99.814C67.421,99.814 69.481,101.873 69.481,104.413C69.481,106.953 67.421,109.016 64.88,109.016C62.34,109.016 60.28,106.953 60.28,104.413C60.28,101.873 62.34,99.814 64.88,99.814Z" style="fill:rgb(215,216,217);fill-rule:nonzero;"/>
        <path d="M53.05,94.883C55.23,94.883 56.994,96.65 56.994,98.828C56.994,101.004 55.23,102.772 53.05,102.772C50.874,102.772 49.106,101.004 49.106,98.828C49.106,96.65 50.874,94.883 53.05,94.883Z" style="fill:rgb(215,216,217);fill-rule:nonzero;"/>
        <path d="M44.836,81.739C47.196,81.739 49.108,83.651 49.108,86.011C49.108,88.372 47.196,90.284 44.836,90.284C42.476,90.284 40.563,88.372 40.563,86.011C40.563,83.651 42.476,81.739 44.836,81.739Z" style="fill:rgb(215,216,217);fill-rule:nonzero;"/>
        <path d="M33.333,96.28C37.326,96.28 40.563,99.516 40.563,103.509C40.563,107.502 37.326,110.739 33.333,110.739C29.34,110.739 26.103,107.502 26.103,103.509C26.103,99.516 29.34,96.28 33.333,96.28Z" style="fill:rgb(215,216,217);fill-rule:nonzero;"/>
        <path d="M139.901,71.568C141.898,71.568 143.515,73.186 143.515,75.183C143.515,77.179 141.898,78.798 139.901,78.798C137.903,78.798 136.285,77.179 136.285,75.183C136.285,73.186 137.903,71.568 139.901,71.568Z" style="fill:rgb(215,216,217);fill-rule:nonzero;"/>
        <path d="M55.2,0.877C57.197,0.877 58.814,2.497 58.814,4.494C58.814,6.489 57.197,8.108 55.2,8.108C53.203,8.108 51.584,6.489 51.584,4.494C51.584,2.497 53.203,0.877 55.2,0.877Z" style="fill:rgb(215,216,217);fill-rule:nonzero;"/>
        <path d="M124.529,146.77C126.526,146.77 128.144,148.389 128.144,150.385C128.144,152.381 126.526,154 124.529,154C122.532,154 120.914,152.381 120.914,150.385C120.914,148.389 122.532,146.77 124.529,146.77Z" style="fill:rgb(215,216,217);fill-rule:nonzero;"/>
        <path d="M72.572,117.936C94.938,117.936 113.069,99.805 113.069,77.439C113.069,55.073 94.938,36.942 72.572,36.942C50.206,36.942 32.075,55.073 32.075,77.439C32.075,99.805 50.206,117.936 72.572,117.936Z" style="fill:white;fill-rule:nonzero;"/>
        <path d="M184.63,44.191C185.29,43.731 185.755,43.005 186.024,42.015C186.293,41.025 186.428,39.67 186.428,37.951C186.428,36.231 186.289,34.854 186.011,33.821C185.733,32.787 185.26,32.023 184.591,31.528C183.922,31.033 182.997,30.785 181.816,30.785C180.634,30.785 179.709,31.033 179.041,31.528C178.372,32.023 177.898,32.783 177.621,33.807C177.343,34.833 177.204,36.205 177.204,37.924C177.204,39.61 177.338,40.947 177.608,41.937C177.877,42.927 178.341,43.667 179.002,44.152C179.662,44.639 180.6,44.881 181.816,44.881C183.032,44.881 183.97,44.652 184.63,44.191ZM177.569,46.132C176.526,45.49 175.775,44.504 175.315,43.175C174.854,41.846 174.624,40.096 174.624,37.924C174.624,35.771 174.854,34.012 175.315,32.648C175.775,31.285 176.53,30.268 177.582,29.599C178.632,28.93 180.044,28.596 181.816,28.596C183.588,28.596 184.999,28.93 186.05,29.599C187.101,30.268 187.857,31.28 188.317,32.635C188.777,33.99 189.008,35.762 189.008,37.951C189.008,40.123 188.782,41.868 188.331,43.188C187.878,44.508 187.132,45.49 186.089,46.132C185.047,46.776 183.623,47.097 181.816,47.097C180.027,47.097 178.611,46.776 177.569,46.132Z" style="fill:rgb(78,78,80);fill-rule:nonzero;"/>
        <path d="M204.017,38.836C206.274,38.836 207.404,37.491 207.404,34.797C207.404,33.495 207.135,32.543 206.596,31.944C206.058,31.345 205.197,31.045 204.017,31.045L199.978,31.045L199.978,38.836L204.017,38.836ZM197.477,28.882L204.043,28.882C206.04,28.882 207.525,29.369 208.498,30.341C209.471,31.315 209.957,32.8 209.957,34.797C209.957,36.847 209.458,38.398 208.459,39.449C207.46,40.5 205.988,41.025 204.043,41.025L199.978,41.025L199.978,46.81L197.477,46.81L197.477,28.882Z" style="fill:rgb(78,78,80);fill-rule:nonzero;"/>
        <path d="M220.381,31.072L220.381,36.648L227.416,36.648L227.416,38.81L220.381,38.81L220.381,44.622L228.979,44.622L228.979,46.81L217.879,46.81L217.879,28.882L228.979,28.882L228.979,31.072L220.381,31.072Z" style="fill:rgb(78,78,80);fill-rule:nonzero;"/>
        <path d="M250.58,28.882L250.58,46.81L246.203,46.81L240.002,31.072L239.584,31.072L239.584,46.81L237.083,46.81L237.083,28.882L241.539,28.882L247.61,44.622L248.079,44.622L248.079,28.882L250.58,28.882Z" style="fill:rgb(78,78,80);fill-rule:nonzero;"/>
        <path d="M175.51,86.183L174.572,86.027L174.833,84.02C177.178,84.333 178.967,84.489 180.201,84.489C182.546,84.489 183.718,83.42 183.718,81.284C183.718,80.694 183.597,80.22 183.354,79.864C183.11,79.508 182.724,79.221 182.194,79.004C181.664,78.788 180.921,78.574 179.966,78.366C178.559,78.036 177.464,77.667 176.683,77.258C175.901,76.85 175.328,76.325 174.963,75.682C174.598,75.04 174.416,74.197 174.416,73.154C174.416,71.504 174.911,70.262 175.901,69.428C176.891,68.594 178.351,68.177 180.279,68.177C180.991,68.177 181.759,68.221 182.585,68.307C183.41,68.395 184.5,68.551 185.855,68.777L185.646,70.809C183.266,70.532 181.546,70.392 180.487,70.392C178.107,70.392 176.917,71.261 176.917,72.998C176.917,73.641 177.052,74.144 177.321,74.509C177.59,74.875 178.02,75.173 178.611,75.409C179.201,75.643 180.096,75.899 181.295,76.177C182.546,76.49 183.519,76.837 184.213,77.219C184.908,77.601 185.416,78.096 185.738,78.705C186.059,79.313 186.22,80.112 186.22,81.102C186.22,82.943 185.72,84.333 184.722,85.271C183.722,86.209 182.268,86.678 180.357,86.678C179.158,86.678 177.542,86.513 175.51,86.183Z" style="fill:rgb(78,78,80);fill-rule:nonzero;"/>
        <path d="M203.887,83.798C204.547,83.338 205.012,82.613 205.281,81.623C205.55,80.632 205.685,79.278 205.685,77.558C205.685,75.838 205.545,74.461 205.268,73.428C204.99,72.394 204.516,71.63 203.848,71.135C203.179,70.64 202.254,70.392 201.072,70.392C199.891,70.392 198.966,70.64 198.297,71.135C197.629,71.63 197.154,72.39 196.877,73.415C196.6,74.44 196.461,75.812 196.461,77.532C196.461,79.217 196.595,80.554 196.864,81.544C197.133,82.535 197.598,83.274 198.258,83.759C198.918,84.247 199.856,84.489 201.072,84.489C202.288,84.489 203.227,84.259 203.887,83.798ZM196.825,85.74C195.783,85.097 195.031,84.112 194.571,82.783C194.11,81.454 193.88,79.704 193.88,77.532C193.88,75.378 194.11,73.62 194.571,72.255C195.031,70.892 195.787,69.875 196.838,69.207C197.889,68.538 199.301,68.204 201.072,68.204C202.844,68.204 204.256,68.538 205.307,69.207C206.357,69.875 207.113,70.887 207.574,72.243C208.033,73.597 208.264,75.37 208.264,77.558C208.264,79.73 208.038,81.475 207.587,82.795C207.135,84.116 206.389,85.097 205.346,85.74C204.304,86.383 202.879,86.705 201.072,86.705C199.283,86.705 197.867,86.383 196.825,85.74Z" style="fill:rgb(78,78,80);fill-rule:nonzero;"/>
        <path d="M218.218,85.284C217.158,84.337 216.629,82.839 216.629,80.79L216.629,68.49L219.13,68.49L219.13,80.841C219.13,83.274 220.424,84.489 223.012,84.489C224.367,84.489 225.379,84.194 226.048,83.603C226.717,83.013 227.051,82.092 227.051,80.841L227.051,68.49L229.527,68.49L229.527,80.79C229.527,82.839 228.992,84.337 227.924,85.284C226.855,86.231 225.236,86.705 223.064,86.705C220.893,86.705 219.277,86.231 218.218,85.284Z" style="fill:rgb(78,78,80);fill-rule:nonzero;"/>
        <path d="M245.291,77.636C246.386,77.636 247.215,77.336 247.779,76.737C248.344,76.138 248.627,75.265 248.627,74.119C248.627,72.99 248.344,72.129 247.779,71.539C247.215,70.949 246.377,70.653 245.266,70.653L241.044,70.653L241.044,77.636L245.291,77.636ZM238.543,68.49L245.266,68.49C247.246,68.49 248.727,68.951 249.708,69.871C250.689,70.792 251.18,72.19 251.18,74.066C251.18,76.707 250.146,78.444 248.08,79.278L251.258,86.417L248.522,86.417L245.63,79.799L241.044,79.799L241.044,86.417L238.543,86.417L238.543,68.49Z" style="fill:rgb(78,78,80);fill-rule:nonzero;"/>
        <path d="M261.577,85.675C260.587,84.989 259.903,83.99 259.531,82.678C259.157,81.367 258.971,79.634 258.971,77.48C258.971,75.256 259.161,73.485 259.545,72.165C259.926,70.844 260.6,69.854 261.564,69.194C262.528,68.534 263.896,68.204 265.668,68.204C267.109,68.204 268.777,68.412 270.671,68.829L270.593,70.887C268.942,70.592 267.466,70.444 266.163,70.444C264.86,70.444 263.879,70.674 263.219,71.135C262.559,71.595 262.114,72.338 261.89,73.363C261.664,74.388 261.56,75.874 261.577,77.819C261.577,79.503 261.686,80.802 261.902,81.714C262.118,82.626 262.563,83.313 263.231,83.773C263.9,84.233 264.921,84.463 266.293,84.463C267.439,84.463 268.873,84.316 270.593,84.02L270.671,86.13C268.76,86.513 267.153,86.705 265.851,86.705C263.991,86.705 262.567,86.361 261.577,85.675Z" style="fill:rgb(78,78,80);fill-rule:nonzero;"/>
        <path d="M281.224,70.679L281.224,76.255L288.26,76.255L288.26,78.417L281.224,78.417L281.224,84.229L289.822,84.229L289.822,86.417L278.723,86.417L278.723,68.49L289.822,68.49L289.822,70.679L281.224,70.679Z" style="fill:rgb(78,78,80);fill-rule:nonzero;"/>
        <path d="M181.66,109.035L180.305,109.035L177.125,119.536L184.813,119.536L181.66,109.035ZM185.151,120.761L176.787,120.761L175.224,126.024L173.947,126.024L179.314,107.862L182.624,107.862L187.992,126.024L186.715,126.024L185.151,120.761Z" style="fill:rgb(78,78,80);fill-rule:nonzero;"/>
        <path d="M197.099,124.956C196.1,124.088 195.6,122.698 195.6,120.787L195.6,107.862L196.93,107.862L196.93,120.813C196.93,123.662 198.492,125.086 201.619,125.086C203.287,125.086 204.525,124.748 205.332,124.07C206.141,123.393 206.545,122.308 206.545,120.813L206.545,107.862L207.821,107.862L207.821,120.787C207.821,122.698 207.313,124.088 206.297,124.956C205.28,125.825 203.738,126.259 201.672,126.259C199.621,126.259 198.098,125.825 197.099,124.956Z" style="fill:rgb(78,78,80);fill-rule:nonzero;"/>
        <path d="M217.357,125.868L216.42,125.764L216.551,124.565C218.947,124.878 220.754,125.034 221.971,125.034C224.854,125.034 226.296,123.636 226.296,120.839C226.296,120.075 226.183,119.48 225.957,119.054C225.73,118.629 225.31,118.281 224.693,118.012C224.076,117.742 223.16,117.504 221.944,117.295C220.484,117.034 219.359,116.731 218.57,116.383C217.779,116.036 217.201,115.541 216.837,114.898C216.473,114.256 216.289,113.369 216.289,112.24C216.289,110.677 216.754,109.509 217.684,108.735C218.613,107.963 220.051,107.576 221.996,107.576C223.42,107.576 225.176,107.724 227.26,108.019L227.129,109.218C224.662,108.922 222.961,108.774 222.022,108.774C219.104,108.774 217.645,109.904 217.645,112.162C217.645,113.065 217.753,113.734 217.971,114.168C218.188,114.603 218.617,114.95 219.26,115.211C219.902,115.471 220.963,115.749 222.439,116.044C223.76,116.288 224.785,116.578 225.514,116.917C226.244,117.256 226.777,117.721 227.117,118.312C227.455,118.902 227.625,119.701 227.625,120.709C227.625,122.585 227.173,123.975 226.27,124.878C225.366,125.781 223.951,126.232 222.022,126.232C220.858,126.232 219.303,126.111 217.357,125.868Z" style="fill:rgb(78,78,80);fill-rule:nonzero;"/>
        <path d="M240.887,109.062L234.998,109.062L234.998,107.862L248.027,107.862L248.027,109.062L242.19,109.062L242.19,126.024L240.887,126.024L240.887,109.062Z" style="fill:rgb(78,78,80);fill-rule:nonzero;"/>
        <path d="M262.619,117.504C265.398,117.504 266.788,116.097 266.788,113.282C266.788,111.841 266.445,110.776 265.759,110.09C265.072,109.404 264.018,109.062 262.593,109.062L257.329,109.062L257.329,117.504L262.619,117.504ZM256.026,107.862L262.593,107.862C264.469,107.862 265.863,108.292 266.775,109.152C267.688,110.012 268.143,111.355 268.143,113.178C268.143,116.166 266.936,117.93 264.521,118.468L268.404,126.024L266.944,126.024L263.166,118.702L257.329,118.702L257.329,126.024L256.026,126.024L256.026,107.862Z" style="fill:rgb(78,78,80);fill-rule:nonzero;"/>
        <path d="M283.777,109.035L282.422,109.035L279.243,119.536L286.93,119.536L283.777,109.035ZM287.27,120.761L278.904,120.761L277.342,126.024L276.064,126.024L281.432,107.862L284.742,107.862L290.109,126.024L288.832,126.024L287.27,120.761Z" style="fill:rgb(78,78,80);fill-rule:nonzero;"/>
        <path d="M308.167,124.826L308.167,126.024L298.317,126.024L298.317,107.862L299.62,107.862L299.62,124.826L308.167,124.826Z" style="fill:rgb(78,78,80);fill-rule:nonzero;"/>
        <rect x="316.192" y="107.862" width="1.303" height="18.162" style="fill:rgb(78,78,80);fill-rule:nonzero;"/>
        <path d="M333.391,109.035L332.035,109.035L328.855,119.536L336.543,119.536L333.391,109.035ZM336.882,120.761L328.518,120.761L326.954,126.024L325.678,126.024L331.045,107.862L334.354,107.862L339.723,126.024L338.445,126.024L336.882,120.761Z" style="fill:rgb(78,78,80);fill-rule:nonzero;"/>
    </g>
</svg>
