<?xml version="1.0" encoding="UTF-8" standalone="no"?>
<!DOCTYPE svg PUBLIC "-//W3C//DTD SVG 1.1//EN" "http://www.w3.org/Graphics/SVG/1.1/DTD/svg11.dtd">
<svg width="100%" height="100%" viewBox="0 0 1575 363" version="1.1" xmlns="http://www.w3.org/2000/svg" xmlns:xlink="http://www.w3.org/1999/xlink" xml:space="preserve" xmlns:serif="http://www.serif.com/" style="fill-rule:evenodd;clip-rule:evenodd;stroke-linejoin:round;stroke-miterlimit:1.41421;">
    <g transform="matrix(4.16667,0,0,4.16667,0,0)">
        <path d="M52.96,36.699C54.761,36.699 56.22,38.159 56.22,39.958C56.22,41.759 54.761,43.218 52.96,43.218C51.159,43.218 49.7,41.759 49.7,39.958C49.7,38.159 51.159,36.699 52.96,36.699Z" style="fill:rgb(215,216,217);fill-rule:nonzero;"/>
        <path d="M63.284,35.34C65.835,35.34 67.902,37.409 67.902,39.958C67.902,42.509 65.835,44.579 63.284,44.579C60.733,44.579 58.666,42.509 58.666,39.958C58.666,37.409 60.733,35.34 63.284,35.34Z" style="fill:rgb(215,216,217);fill-rule:nonzero;"/>
        <path d="M67.631,45.664C69.581,45.664 71.163,47.245 71.163,49.197C71.163,51.148 69.581,52.728 67.631,52.728C65.68,52.728 64.098,51.148 64.098,49.197C64.098,47.245 65.68,45.664 67.631,45.664Z" style="fill:rgb(215,216,217);fill-rule:nonzero;"/>
        <path d="M67.359,28.821C68.859,28.821 70.075,30.037 70.075,31.537C70.075,33.037 68.859,34.253 67.359,34.253C65.859,34.253 64.643,33.037 64.643,31.537C64.643,30.037 65.859,28.821 67.359,28.821Z" style="fill:rgb(215,216,217);fill-rule:nonzero;"/>
        <path d="M55.134,21.484C59.034,21.484 62.198,24.647 62.198,28.548C62.198,32.45 59.034,35.611 55.134,35.611C51.231,35.611 48.07,32.45 48.07,28.548C48.07,24.647 51.231,21.484 55.134,21.484Z" style="fill:rgb(215,216,217);fill-rule:nonzero;"/>
        <path d="M44.537,29.635C45.888,29.635 46.983,30.729 46.983,32.08C46.983,33.43 45.888,34.525 44.537,34.525C43.188,34.525 42.092,33.43 42.092,32.08C42.092,30.729 43.188,29.635 44.537,29.635Z" style="fill:rgb(215,216,217);fill-rule:nonzero;"/>
        <path d="M6.458,28.035C7.809,28.035 8.904,29.129 8.904,30.481C8.904,31.831 7.809,32.925 6.458,32.925C5.108,32.925 4.013,31.831 4.013,30.481C4.013,29.129 5.108,28.035 6.458,28.035Z" style="fill:rgb(215,216,217);fill-rule:nonzero;"/>
        <path d="M76.596,48.651C79.448,48.651 81.76,50.963 81.76,53.814C81.76,56.665 79.448,58.977 76.596,58.977C73.746,58.977 71.434,56.665 71.434,53.814C71.434,50.963 73.746,48.651 76.596,48.651Z" style="fill:rgb(183,209,52);fill-rule:nonzero;"/>
        <path d="M54.705,10.659C57.135,10.659 59.106,12.629 59.106,15.06C59.106,17.491 57.135,19.462 54.705,19.462C52.274,19.462 50.303,17.491 50.303,15.06C50.303,12.629 52.274,10.659 54.705,10.659Z" style="fill:rgb(242,109,88);fill-rule:nonzero;"/>
        <path d="M39.647,12.832C43.549,12.832 46.71,15.995 46.71,19.895C46.71,23.796 43.549,26.958 39.647,26.958C35.746,26.958 32.584,23.796 32.584,19.895C32.584,15.995 35.746,12.832 39.647,12.832Z" style="fill:rgb(215,216,217);fill-rule:nonzero;"/>
        <path d="M37.202,30.722C38.252,30.722 39.103,31.573 39.103,32.623C39.103,33.673 38.252,34.525 37.202,34.525C36.151,34.525 35.3,33.673 35.3,32.623C35.3,31.573 36.151,30.722 37.202,30.722Z" style="fill:rgb(215,216,217);fill-rule:nonzero;"/>
        <path d="M6.249,54.487C9.7,54.487 12.498,57.285 12.498,60.736C12.498,64.186 9.7,66.985 6.249,66.985C2.797,66.985 0,64.186 0,60.736C0,57.285 2.797,54.487 6.249,54.487Z" style="fill:rgb(215,216,217);fill-rule:nonzero;"/>
        <path d="M19.168,7.005C23.564,7.005 27.127,10.569 27.127,14.963C27.127,19.36 23.564,22.922 19.168,22.922C14.772,22.922 11.21,19.36 11.21,14.963C11.21,10.569 14.772,7.005 19.168,7.005Z" style="fill:rgb(140,206,205);fill-rule:nonzero;"/>
        <path d="M25.732,39.57C26.871,39.57 27.795,40.494 27.795,41.633C27.795,42.773 26.871,43.697 25.732,43.697C24.592,43.697 23.669,42.773 23.669,41.633C23.669,40.494 24.592,39.57 25.732,39.57Z" style="fill:rgb(215,216,217);fill-rule:nonzero;"/>
        <path d="M11.478,34.253C16.606,34.253 20.762,38.409 20.762,43.537C20.762,48.665 16.606,52.821 11.478,52.821C6.35,52.821 2.194,48.665 2.194,43.537C2.194,38.409 6.35,34.253 11.478,34.253Z" style="fill:rgb(252,225,21);fill-rule:nonzero;"/>
        <path d="M68.111,62.239C71.262,62.239 73.815,64.793 73.815,67.944C73.815,71.095 71.262,73.649 68.111,73.649C64.96,73.649 62.405,71.095 62.405,67.944C62.405,64.793 64.96,62.239 68.111,62.239Z" style="fill:rgb(215,216,217);fill-rule:nonzero;"/>
        <path d="M55.715,69.345C59.466,69.345 62.508,72.385 62.508,76.136C62.508,79.887 59.466,82.927 55.715,82.927C51.964,82.927 48.922,79.887 48.922,76.136C48.922,72.385 51.964,69.345 55.715,69.345Z" style="fill:rgb(244,120,33);fill-rule:nonzero;"/>
        <path d="M28.722,59.574C32.955,59.574 36.385,63.005 36.385,67.236C36.385,71.468 32.955,74.899 28.722,74.899C24.49,74.899 21.06,71.468 21.06,67.236C21.06,63.005 24.49,59.574 28.722,59.574Z" style="fill:rgb(215,216,217);fill-rule:nonzero;"/>
        <path d="M38.069,71.744C39.697,71.744 41.017,73.064 41.017,74.692C41.017,76.319 39.697,77.638 38.069,77.638C36.441,77.638 35.122,76.319 35.122,74.692C35.122,73.064 36.441,71.744 38.069,71.744Z" style="fill:rgb(215,216,217);fill-rule:nonzero;"/>
        <path d="M66.904,54.997C68.439,54.997 69.681,56.239 69.681,57.772C69.681,59.306 68.439,60.548 66.904,60.548C65.371,60.548 64.128,59.306 64.128,57.772C64.128,56.239 65.371,54.997 66.904,54.997Z" style="fill:rgb(215,216,217);fill-rule:nonzero;"/>
        <path d="M58.76,59.069C60.907,59.069 62.647,60.809 62.647,62.956C62.647,65.102 60.907,66.842 58.76,66.842C56.615,66.842 54.874,65.102 54.874,62.956C54.874,60.809 56.615,59.069 58.76,59.069Z" style="fill:rgb(215,216,217);fill-rule:nonzero;"/>
        <path d="M46.913,54.071C48.038,54.071 48.95,54.982 48.95,56.107C48.95,57.232 48.038,58.143 46.913,58.143C45.788,58.143 44.876,57.232 44.876,56.107C44.876,54.982 45.788,54.071 46.913,54.071Z" style="fill:rgb(215,216,217);fill-rule:nonzero;"/>
        <path d="M45.803,59.624C49.177,59.624 51.911,62.358 51.911,65.731C51.911,69.105 49.177,71.839 45.803,71.839C42.429,71.839 39.695,69.105 39.695,65.731C39.695,62.358 42.429,59.624 45.803,59.624Z" style="fill:rgb(215,216,217);fill-rule:nonzero;"/>
        <path d="M36.547,56.477C37.979,56.477 39.138,57.637 39.138,59.068C39.138,60.499 37.979,61.66 36.547,61.66C35.116,61.66 33.955,60.499 33.955,59.068C33.955,57.637 35.116,56.477 36.547,56.477Z" style="fill:rgb(215,216,217);fill-rule:nonzero;"/>
        <path d="M29.883,53.7C31.11,53.7 32.105,54.695 32.105,55.921C32.105,57.148 31.11,58.143 29.883,58.143C28.656,58.143 27.663,57.148 27.663,55.921C27.663,54.695 28.656,53.7 29.883,53.7Z" style="fill:rgb(215,216,217);fill-rule:nonzero;"/>
        <path d="M25.256,46.295C26.585,46.295 27.662,47.373 27.662,48.702C27.662,50.032 26.585,51.109 25.256,51.109C23.927,51.109 22.849,50.032 22.849,48.702C22.849,47.373 23.927,46.295 25.256,46.295Z" style="fill:rgb(215,216,217);fill-rule:nonzero;"/>
        <path d="M18.776,54.487C21.025,54.487 22.85,56.309 22.85,58.558C22.85,60.807 21.025,62.631 18.776,62.631C16.528,62.631 14.704,60.807 14.704,58.558C14.704,56.309 16.528,54.487 18.776,54.487Z" style="fill:rgb(215,216,217);fill-rule:nonzero;"/>
        <path d="M78.806,40.566C79.931,40.566 80.841,41.478 80.841,42.603C80.841,43.727 79.931,44.639 78.806,44.639C77.681,44.639 76.769,43.727 76.769,42.603C76.769,41.478 77.681,40.566 78.806,40.566Z" style="fill:rgb(215,216,217);fill-rule:nonzero;"/>
        <path d="M31.094,0.747C32.219,0.747 33.129,1.659 33.129,2.784C33.129,3.908 32.219,4.82 31.094,4.82C29.969,4.82 29.057,3.908 29.057,2.784C29.057,1.659 29.969,0.747 31.094,0.747Z" style="fill:rgb(215,216,217);fill-rule:nonzero;"/>
        <path d="M70.147,82.927C71.272,82.927 72.182,83.839 72.182,84.964C72.182,86.088 71.272,87 70.147,87C69.022,87 68.11,86.088 68.11,84.964C68.11,83.839 69.022,82.927 70.147,82.927Z" style="fill:rgb(215,216,217);fill-rule:nonzero;"/>
        <path d="M40.88,66.685C53.479,66.685 63.692,56.472 63.692,43.874C63.692,31.274 53.479,21.061 40.88,21.061C28.281,21.061 18.068,31.274 18.068,43.874C18.068,56.472 28.281,66.685 40.88,66.685Z" style="fill:white;fill-rule:nonzero;"/>
        <path d="M105.606,49.555C106.07,49.231 106.397,48.72 106.587,48.023C106.777,47.326 106.872,46.372 106.872,45.161C106.872,43.95 106.773,42.981 106.578,42.253C106.382,41.525 106.049,40.987 105.578,40.638C105.107,40.29 104.456,40.115 103.624,40.115C102.792,40.115 102.141,40.29 101.67,40.638C101.199,40.987 100.866,41.522 100.67,42.244C100.475,42.965 100.377,43.931 100.377,45.142C100.377,46.329 100.471,47.271 100.661,47.968C100.851,48.665 101.178,49.185 101.643,49.528C102.107,49.87 102.768,50.041 103.624,50.041C104.48,50.041 105.141,49.879 105.606,49.555ZM100.634,50.922C99.899,50.469 99.37,49.775 99.046,48.839C98.722,47.904 98.56,46.671 98.56,45.142C98.56,43.625 98.722,42.387 99.046,41.427C99.37,40.467 99.902,39.752 100.643,39.281C101.383,38.81 102.376,38.574 103.624,38.574C104.872,38.574 105.866,38.81 106.605,39.281C107.346,39.752 107.877,40.463 108.202,41.417C108.526,42.372 108.688,43.62 108.688,45.161C108.688,46.69 108.529,47.92 108.211,48.848C107.893,49.779 107.367,50.469 106.633,50.922C105.899,51.374 104.896,51.601 103.624,51.601C102.364,51.601 101.368,51.374 100.634,50.922Z" style="fill:rgb(78,78,80);fill-rule:nonzero;"/>
        <path d="M119.312,45.785C120.901,45.785 121.697,44.836 121.697,42.941C121.697,42.023 121.507,41.354 121.128,40.932C120.749,40.509 120.143,40.298 119.312,40.298L116.467,40.298L116.467,45.785L119.312,45.785ZM114.706,38.776L119.33,38.776C120.736,38.776 121.782,39.119 122.467,39.803C123.152,40.489 123.495,41.535 123.495,42.941C123.495,44.384 123.143,45.476 122.439,46.215C121.736,46.956 120.7,47.326 119.33,47.326L116.467,47.326L116.467,51.399L114.706,51.399L114.706,38.776Z" style="fill:rgb(78,78,80);fill-rule:nonzero;"/>
        <path d="M130.906,40.317L130.906,44.244L135.86,44.244L135.86,45.766L130.906,45.766L130.906,49.858L136.961,49.858L136.961,51.399L129.145,51.399L129.145,38.776L136.961,38.776L136.961,40.317L130.906,40.317Z" style="fill:rgb(78,78,80);fill-rule:nonzero;"/>
        <path d="M152.226,38.776L152.226,51.399L149.144,51.399L144.777,40.317L144.483,40.317L144.483,51.399L142.722,51.399L142.722,38.776L145.86,38.776L150.135,49.858L150.465,49.858L150.465,38.776L152.226,38.776Z" style="fill:rgb(78,78,80);fill-rule:nonzero;"/>
        <path d="M166.666,51.234L166.005,51.124L166.188,49.711C167.84,49.931 169.1,50.041 169.968,50.041C171.62,50.041 172.445,49.289 172.445,47.785C172.445,47.369 172.359,47.036 172.188,46.785C172.017,46.534 171.745,46.332 171.372,46.179C170.999,46.026 170.476,45.877 169.803,45.73C168.812,45.498 168.042,45.238 167.491,44.95C166.941,44.663 166.537,44.292 166.28,43.839C166.023,43.387 165.895,42.795 165.895,42.06C165.895,40.898 166.244,40.024 166.941,39.436C167.638,38.849 168.666,38.556 170.023,38.556C170.524,38.556 171.066,38.586 171.647,38.647C172.228,38.708 172.996,38.819 173.95,38.978L173.803,40.409C172.127,40.213 170.916,40.115 170.17,40.115C168.494,40.115 167.656,40.727 167.656,41.95C167.656,42.403 167.751,42.757 167.941,43.014C168.13,43.271 168.433,43.482 168.849,43.647C169.265,43.812 169.895,43.993 170.739,44.188C171.62,44.409 172.304,44.654 172.793,44.922C173.283,45.192 173.641,45.54 173.867,45.968C174.093,46.396 174.207,46.958 174.207,47.656C174.207,48.953 173.854,49.931 173.151,50.591C172.448,51.253 171.424,51.582 170.078,51.582C169.234,51.582 168.097,51.466 166.666,51.234Z" style="fill:rgb(78,78,80);fill-rule:nonzero;"/>
        <path d="M186.701,49.555C187.166,49.231 187.493,48.72 187.683,48.023C187.872,47.326 187.967,46.372 187.967,45.161C187.967,43.95 187.869,42.981 187.673,42.253C187.478,41.525 187.144,40.987 186.673,40.638C186.203,40.29 185.551,40.115 184.719,40.115C183.888,40.115 183.236,40.29 182.766,40.638C182.294,40.987 181.961,41.522 181.766,42.244C181.57,42.965 181.472,43.931 181.472,45.142C181.472,46.329 181.566,47.271 181.756,47.968C181.946,48.665 182.273,49.185 182.738,49.528C183.203,49.87 183.863,50.041 184.719,50.041C185.576,50.041 186.236,49.879 186.701,49.555ZM181.729,50.922C180.995,50.469 180.466,49.775 180.142,48.839C179.817,47.904 179.656,46.671 179.656,45.142C179.656,43.625 179.817,42.387 180.142,41.427C180.466,40.467 180.998,39.752 181.738,39.281C182.478,38.81 183.472,38.574 184.719,38.574C185.967,38.574 186.961,38.81 187.701,39.281C188.441,39.752 188.973,40.463 189.297,41.417C189.621,42.372 189.783,43.62 189.783,45.161C189.783,46.69 189.624,47.92 189.306,48.848C188.988,49.779 188.462,50.469 187.729,50.922C186.995,51.374 185.991,51.601 184.719,51.601C183.459,51.601 182.463,51.374 181.729,50.922Z" style="fill:rgb(78,78,80);fill-rule:nonzero;"/>
        <path d="M196.847,50.601C196.101,49.934 195.728,48.879 195.728,47.436L195.728,38.776L197.489,38.776L197.489,47.472C197.489,49.185 198.4,50.041 200.223,50.041C201.177,50.041 201.89,49.833 202.36,49.417C202.831,49.002 203.067,48.353 203.067,47.472L203.067,38.776L204.81,38.776L204.81,47.436C204.81,48.879 204.434,49.934 203.682,50.601C202.929,51.268 201.789,51.601 200.26,51.601C198.73,51.601 197.593,51.268 196.847,50.601Z" style="fill:rgb(78,78,80);fill-rule:nonzero;"/>
        <path d="M215.965,45.215C216.735,45.215 217.319,45.004 217.717,44.582C218.115,44.161 218.313,43.546 218.313,42.739C218.313,41.944 218.115,41.338 217.717,40.922C217.319,40.506 216.729,40.298 215.947,40.298L212.974,40.298L212.974,45.215L215.965,45.215ZM211.213,38.776L215.947,38.776C217.34,38.776 218.383,39.1 219.075,39.749C219.766,40.397 220.112,41.381 220.112,42.703C220.112,44.562 219.383,45.785 217.928,46.372L220.167,51.399L218.241,51.399L216.204,46.739L212.974,46.739L212.974,51.399L211.213,51.399L211.213,38.776Z" style="fill:rgb(78,78,80);fill-rule:nonzero;"/>
        <path d="M227.487,50.877C226.79,50.393 226.309,49.69 226.047,48.766C225.784,47.842 225.653,46.623 225.653,45.106C225.653,43.54 225.787,42.292 226.055,41.363C226.325,40.433 226.799,39.736 227.477,39.271C228.157,38.806 229.12,38.574 230.368,38.574C231.383,38.574 232.557,38.721 233.89,39.014L233.834,40.463C232.672,40.256 231.633,40.152 230.716,40.152C229.799,40.152 229.108,40.314 228.643,40.638C228.178,40.962 227.866,41.485 227.708,42.207C227.547,42.928 227.475,43.974 227.487,45.344C227.487,46.531 227.563,47.445 227.716,48.087C227.87,48.729 228.181,49.212 228.652,49.537C229.123,49.861 229.841,50.023 230.807,50.023C231.616,50.023 232.624,49.92 233.834,49.711L233.89,51.197C232.544,51.466 231.413,51.601 230.497,51.601C229.187,51.601 228.184,51.359 227.487,50.877Z" style="fill:rgb(78,78,80);fill-rule:nonzero;"/>
        <path d="M241.357,40.317L241.357,44.244L246.311,44.244L246.311,45.766L241.357,45.766L241.357,49.858L247.412,49.858L247.412,51.399L239.596,51.399L239.596,38.776L247.412,38.776L247.412,40.317L241.357,40.317Z" style="fill:rgb(78,78,80);fill-rule:nonzero;"/>
        <path d="M265.586,39.436L264.633,39.436L262.395,46.831L267.807,46.831L265.586,39.436ZM268.045,47.693L262.156,47.693L261.055,51.399L260.157,51.399L263.936,38.611L266.266,38.611L270.045,51.399L269.147,51.399L268.045,47.693Z" style="fill:rgb(78,78,80);fill-rule:nonzero;"/>
        <path d="M276.512,50.647C275.809,50.036 275.458,49.057 275.458,47.711L275.458,38.611L276.393,38.611L276.393,47.729C276.393,49.736 277.495,50.739 279.696,50.739C280.87,50.739 281.742,50.499 282.31,50.023C282.879,49.545 283.164,48.782 283.164,47.729L283.164,38.611L284.063,38.611L284.063,47.711C284.063,49.057 283.705,50.036 282.989,50.647C282.274,51.258 281.188,51.564 279.733,51.564C278.29,51.564 277.215,51.258 276.512,50.647Z" style="fill:rgb(78,78,80);fill-rule:nonzero;"/>
        <path d="M290.833,51.289L290.172,51.215L290.264,50.372C291.952,50.591 293.223,50.702 294.081,50.702C296.11,50.702 297.125,49.717 297.125,47.748C297.125,47.209 297.045,46.79 296.887,46.491C296.728,46.191 296.432,45.947 295.998,45.757C295.563,45.568 294.918,45.399 294.061,45.253C293.034,45.069 292.243,44.855 291.686,44.61C291.129,44.366 290.723,44.017 290.465,43.565C290.209,43.112 290.081,42.489 290.081,41.693C290.081,40.592 290.407,39.77 291.062,39.225C291.716,38.681 292.729,38.409 294.098,38.409C295.101,38.409 296.336,38.513 297.805,38.721L297.713,39.565C295.976,39.357 294.778,39.253 294.117,39.253C292.062,39.253 291.034,40.048 291.034,41.638C291.034,42.274 291.111,42.746 291.264,43.051C291.417,43.357 291.719,43.601 292.172,43.785C292.625,43.968 293.371,44.164 294.411,44.372C295.34,44.544 296.061,44.748 296.575,44.987C297.088,45.225 297.465,45.552 297.704,45.968C297.942,46.384 298.061,46.947 298.061,47.656C298.061,48.977 297.743,49.956 297.108,50.591C296.471,51.228 295.475,51.545 294.117,51.545C293.297,51.545 292.202,51.461 290.833,51.289Z" style="fill:rgb(78,78,80);fill-rule:nonzero;"/>
        <path d="M307.437,39.455L303.29,39.455L303.29,38.611L312.463,38.611L312.463,39.455L308.354,39.455L308.354,51.399L307.437,51.399L307.437,39.455Z" style="fill:rgb(78,78,80);fill-rule:nonzero;"/>
        <path d="M322.793,45.399C324.75,45.399 325.729,44.409 325.729,42.427C325.729,41.412 325.488,40.663 325.004,40.179C324.521,39.697 323.778,39.455 322.776,39.455L319.069,39.455L319.069,45.399L322.793,45.399ZM318.152,38.611L322.776,38.611C324.096,38.611 325.079,38.914 325.72,39.519C326.362,40.124 326.684,41.069 326.684,42.354C326.684,44.457 325.833,45.699 324.133,46.079L326.867,51.399L325.839,51.399L323.179,46.244L319.069,46.244L319.069,51.399L318.152,51.399L318.152,38.611Z" style="fill:rgb(78,78,80);fill-rule:nonzero;"/>
        <path d="M337.747,39.436L336.792,39.436L334.554,46.831L339.967,46.831L337.747,39.436ZM340.206,47.693L334.315,47.693L333.215,51.399L332.316,51.399L336.095,38.611L338.425,38.611L342.206,51.399L341.306,51.399L340.206,47.693Z" style="fill:rgb(78,78,80);fill-rule:nonzero;"/>
        <path d="M354.975,50.555L354.975,51.399L348.04,51.399L348.04,38.611L348.958,38.611L348.958,50.555L354.975,50.555Z" style="fill:rgb(78,78,80);fill-rule:nonzero;"/>
        <rect x="360.68" y="38.611" width="0.918" height="12.788" style="fill:rgb(78,78,80);fill-rule:nonzero;"/>
        <path d="M372.845,39.436L371.891,39.436L369.653,46.831L375.065,46.831L372.845,39.436ZM375.303,47.693L369.415,47.693L368.313,51.399L367.415,51.399L371.194,38.611L373.524,38.611L377.303,51.399L376.405,51.399L375.303,47.693Z" style="fill:rgb(78,78,80);fill-rule:nonzero;"/>
    </g>
</svg>
